<?xml version="1.0" encoding="utf-8"?>
<!-- Generator: Adobe Illustrator 25.0.1, SVG Export Plug-In . SVG Version: 6.00 Build 0)  -->
<svg version="1.1" id="icon" xmlns="http://www.w3.org/2000/svg" xmlns:xlink="http://www.w3.org/1999/xlink" x="0px" y="0px"
	 viewBox="0 0 24 24" style="enable-background:new 0 0 24 24;" xml:space="preserve">
<style type="text/css">
	.st0{fill:#E83740;}
	.st1{fill:#796BAF;}
	.st2{fill:#EAEFF9;}
	.st3{fill:#A59ACA;}
	.st4{fill:#EB6D91;}
	.st5{fill:#F7C9DD;}
	.st6{fill:#4B4B4B;}
	.st7{fill:#F6AD3C;}
	.st8{fill:#EB6100;}
	.st9{fill:#FFFFFF;}
	.st10{fill:none;}
</style>
<g>
	<path class="st7" d="M22.9,13.5c0-0.7-0.4-1.4-1.1-1.7c0.7-0.4,1.1-1,1.1-1.7c0-1.1-1-2.1-2.3-2.1h-4.2c1.2-2,2.9-5.6,0.3-6.8
		c-2.1-0.7-2.9,1.5-3.5,2.7c-0.6,1.2-3.4,3.7-5.1,5.2c-0.9,0.8-1.4,1.9-1.4,3v6.6c0,2.1,1.8,3.8,4.1,3.8H20v-0.1
		c0.2,0,0.4,0.1,0.6,0.1c1.3,0,2.3-0.9,2.3-2.1c0-0.7-0.4-1.4-1.1-1.7c0.7-0.4,1.1-1,1.1-1.7c0-0.7-0.4-1.4-1.1-1.7
		C22.5,14.9,22.9,14.2,22.9,13.5z"/>
	<path class="st8" d="M1,10.3C1,10,1.2,9.8,1.5,9.8h3.2c0.3,0,0.5,0.2,0.5,0.5v10.8c0,0.3-0.2,0.5-0.5,0.5H1.5
		c-0.3,0-0.5-0.2-0.5-0.5V10.3z"/>
</g>
<rect class="st10" width="24" height="24"/>
</svg>
