<?xml version="1.0" encoding="utf-8"?>
<!-- Generator: Adobe Illustrator 25.0.1, SVG Export Plug-In . SVG Version: 6.00 Build 0)  -->
<svg version="1.1" id="icon" xmlns="http://www.w3.org/2000/svg" xmlns:xlink="http://www.w3.org/1999/xlink" x="0px" y="0px"
	 viewBox="0 0 24 24" style="enable-background:new 0 0 24 24;" xml:space="preserve">
<style type="text/css">
	.st0{fill:#E83740;}
	.st1{fill:#796BAF;}
	.st2{fill:#EAEFF9;}
	.st3{fill:#A59ACA;}
	.st4{fill:#EB6D91;}
	.st5{fill:#F7C9DD;}
	.st6{fill:#4B4B4B;}
	.st7{fill:#F6AD3C;}
	.st8{fill:#EB6100;}
	.st9{fill:#FFFFFF;}
	.st10{fill:none;}
</style>
<g>
	<path class="st1" d="M6.3,3.8C5.8,3.8,5,4.2,4.7,4.6l-4,5.5c-0.3,0.4-0.3,1.1,0.1,1.5l10.4,10.2c0.4,0.4,1,0.4,1.4,0l10.4-10.2
		c0.4-0.4,0.5-1.1,0.1-1.5l-4-5.5c-0.3-0.4-1-0.8-1.6-0.8H6.3z"/>
	<g>
		<g>
			<path class="st2" d="M21.1,10.1c0.3,0,0.4-0.2,0.2-0.5l-2.5-3.7c-0.2-0.2-0.4-0.2-0.5,0l-1.6,3.6c-0.1,0.3,0,0.5,0.3,0.5
				L21.1,10.1z"/>
		</g>
		<g>
			<path class="st3" d="M10,11.4c-0.3,0-0.5,0.2-0.4,0.5l2.3,7.9c0.1,0.3,0.2,0.3,0.3,0l2.3-7.9c0.1-0.3-0.1-0.5-0.4-0.5H10z"/>
		</g>
		<g>
			<path class="st2" d="M13.6,10.1c0.3,0,0.4-0.2,0.3-0.5l-1.7-3.5c-0.1-0.3-0.3-0.3-0.5,0l-1.7,3.5c-0.1,0.3,0,0.5,0.3,0.5H13.6z"
				/>
		</g>
		<g>
			<path class="st3" d="M17.1,5.4c0.1-0.3,0-0.5-0.3-0.5h-3c-0.3,0-0.4,0.2-0.3,0.5l1.7,3.5c0.1,0.3,0.3,0.3,0.5,0L17.1,5.4z"/>
		</g>
		<g>
			<path class="st3" d="M10.5,5.4c0.1-0.3,0-0.5-0.3-0.5H7.3C7,4.9,6.8,5.1,6.9,5.4l1.5,3.4c0.1,0.3,0.3,0.3,0.4,0L10.5,5.4z"/>
		</g>
		<g>
			<path class="st2" d="M5.7,5.9c-0.1-0.3-0.3-0.3-0.5,0L2.7,9.6c-0.2,0.2-0.1,0.5,0.2,0.5l4,0c0.3,0,0.4-0.2,0.3-0.5L5.7,5.9z"/>
		</g>
		<g>
			<path class="st2" d="M2.8,11.4c-0.3,0-0.4,0.2-0.2,0.4l7.8,8c0.2,0.2,0.3,0.2,0.2-0.1l-2.4-7.8c-0.1-0.3-0.4-0.5-0.7-0.5H2.8z"/>
		</g>
		<g>
			<path class="st2" d="M16.4,11.4c-0.3,0-0.6,0.2-0.7,0.5l-2.4,7.8c-0.1,0.3,0,0.3,0.2,0.1l7.8-8c0.2-0.2,0.1-0.4-0.2-0.4H16.4z"/>
		</g>
	</g>
</g>
<rect class="st10" width="24" height="24"/>
</svg>
