<svg id="icon" xmlns="http://www.w3.org/2000/svg" viewBox="0 0 24 24"><defs><style>.cls-1{fill:#eb6d91;}.cls-2{fill:#e7355c;}.cls-3{fill:none;}.cls-4{fill:#fff;}</style></defs><path class="cls-1" d="M21.76,3.07a1.17,1.17,0,0,0-1-1l-6.69-.56a2.23,2.23,0,0,0-1.6.58L1.35,13.13a.92.92,0,0,0,0,1.32l8,8a1,1,0,0,0,1.33,0L21.74,11.34a2.32,2.32,0,0,0,.59-1.6ZM19.16,6.9a1.6,1.6,0,1,1-2.27-2.26,1.62,1.62,0,0,1,2.27,0A1.59,1.59,0,0,1,19.16,6.9Z"/><path class="cls-2" d="M2.75,14.45c-.37-.36-.25-.73.26-.82l17.45-3.16c.51-.09.63.13.26.49L10.65,21a.94.94,0,0,1-1.33,0Z"/><rect class="cls-3" width="24" height="24"/><path class="cls-4" d="M10.76,6.14H11.9V7c1.8.1,3.56.84,3.53,3H13.06A1.15,1.15,0,0,0,11.9,8.86v1.91c1.72.52,3.67,1.11,3.67,3.17,0,2.26-1.68,3-3.67,3.08v1.33H10.76V17c-2-.07-3.58-1.14-3.61-3.28H9.64a1.35,1.35,0,0,0,1.12,1.43V13c-1.6-.49-3.42-.92-3.42-3S9,7.26,10.76,7Zm0,2.64c-.38,0-1,.32-1,.84s.59.77,1,.94Zm1.14,6.47c.57,0,1.2-.33,1.2-.91s-.52-1-1.2-1.1Z"/></svg>