<?xml version="1.0" encoding="utf-8"?>
<!-- Generator: Adobe Illustrator 25.0.1, SVG Export Plug-In . SVG Version: 6.00 Build 0)  -->
<svg version="1.1" id="icon" xmlns="http://www.w3.org/2000/svg" xmlns:xlink="http://www.w3.org/1999/xlink" x="0px" y="0px"
	 viewBox="0 0 24 24" style="enable-background:new 0 0 24 24;" xml:space="preserve">
<style type="text/css">
	.st0{fill:#E83740;}
	.st1{fill:#796BAF;}
	.st2{fill:#EAEFF9;}
	.st3{fill:#A59ACA;}
	.st4{fill:#EB6D91;}
	.st5{fill:#F7C9DD;}
	.st6{fill:#4B4B4B;}
	.st7{fill:#F6AD3C;}
	.st8{fill:#EB6100;}
	.st9{fill:#FFFFFF;}
	.st10{fill:none;}
</style>
<path class="st0" d="M23.4,11.5c0.2,0.2,0.2,0.6,0,0.8l-1.2,1.4c-0.2,0.2-0.3,0.6-0.2,0.9l0.4,1.7c0.1,0.3-0.1,0.6-0.4,0.7l-1.7,0.7
	c-0.3,0.1-0.5,0.4-0.6,0.7l-0.4,1.8c-0.1,0.3-0.4,0.5-0.6,0.5l-1.8,0c-0.3,0-0.7,0.2-0.9,0.4l-1.1,1.4c-0.2,0.2-0.5,0.3-0.8,0.2
	l-1.7-0.8c-0.3-0.1-0.7-0.1-1,0l-1.7,0.8c-0.3,0.1-0.6,0-0.8-0.2l-1.1-1.4c-0.2-0.2-0.6-0.4-0.9-0.4l-1.8,0c-0.3,0-0.6-0.2-0.6-0.5
	l-0.4-1.8c-0.1-0.3-0.3-0.6-0.6-0.7L1.9,17c-0.3-0.1-0.4-0.4-0.4-0.7L2,14.6c0.1-0.3,0-0.7-0.2-0.9l-1.2-1.4c-0.2-0.2-0.2-0.6,0-0.8
	l1.2-1.4C2,9.9,2.1,9.4,2,9.2L1.6,7.4C1.5,7.2,1.7,6.8,1.9,6.7L3.6,6c0.3-0.1,0.5-0.4,0.6-0.7l0.4-1.8C4.6,3.2,4.9,3,5.2,3l1.8,0
	c0.3,0,0.7-0.2,0.9-0.4l1.1-1.4C9.2,1,9.6,0.9,9.9,1l1.7,0.8c0.3,0.1,0.7,0.1,1,0L14.1,1c0.3-0.1,0.6,0,0.8,0.2l1.1,1.4
	C16.2,2.8,16.6,3,16.9,3l1.8,0c0.3,0,0.6,0.2,0.6,0.5l0.4,1.8c0.1,0.3,0.3,0.6,0.6,0.7l1.7,0.7c0.3,0.1,0.4,0.4,0.4,0.7L22,9.2
	c-0.1,0.3,0,0.7,0.2,0.9L23.4,11.5z"/>
<g>
	<path class="st9" d="M3.3,8.8h1.9l1.9,3.8V8.8h1.5v6.8H6.9l-2.2-4.3v4.3H3.3V8.8z"/>
	<path class="st9" d="M9.2,8.8h4.1v1.5h-2.4v1.2h1.9v1.4h-1.9v1.2h2.5v1.5H9.2V8.8z"/>
	<path class="st9" d="M13.6,8.8h1.6L16,13l0.8-4.2h1.4L19,13l0.8-4.3h1.5L20,15.6h-1.7l-0.9-4.3l-0.9,4.3H15L13.6,8.8z"/>
</g>
<rect class="st10" width="24" height="24"/>
</svg>
