<svg width="240" height="164" viewBox="0 0 240 164" fill="none" xmlns="http://www.w3.org/2000/svg">
<path d="M35.28 100.63C36.1546 100.209 36.9158 99.5852 37.5 98.81C37.2077 99.173 36.809 99.4353 36.36 99.56C36.0277 99.5971 35.6923 99.5971 35.36 99.56L36.42 89.46C35.99 92.56 35.58 96.03 35.22 99.55H35.14C34.5867 99.5611 34.0595 99.787 33.67 100.18L31.15 101.34C32.4851 101.31 33.8102 101.102 35.09 100.72C34.65 105.08 34.25 109.47 33.91 113.33L35.28 100.63Z" fill="#81B727"/>
<path d="M28.33 102.44L30.33 112.94C30.1124 109.369 29.4403 105.841 28.33 102.44V102.44Z" fill="white"/>
<path d="M34.38 91.81C34.3543 91.5361 34.3041 91.265 34.23 91C33.7873 89.4691 32.904 88.1024 31.69 87.07C31.0723 86.5098 30.3747 86.0447 29.62 85.69V85.6C29.2 84.19 28.53 82.66 27.16 82.12C27.0705 82.0746 26.9695 82.0572 26.87 82.07C26.7765 82.1054 26.6913 82.1599 26.62 82.23C26.1217 82.6574 25.5785 83.0296 25 83.34L24.2 83.84L24.29 83.65C23.18 82.94 21.73 83.32 20.47 83.71L18.47 84.35C18.1233 84.4228 17.8002 84.5809 17.53 84.81C17.3038 85.077 17.149 85.3969 17.08 85.74C16.7339 87.0353 16.7862 88.4048 17.23 89.67C17.4701 90.2532 17.8083 90.791 18.23 91.26L17 90.84C15.43 91.3 15.13 92 15.13 92C16.244 93.0985 17.5575 93.9742 19 94.58H18C17.9599 94.7496 17.9542 94.9255 17.9834 95.0973C18.0127 95.2691 18.0761 95.4332 18.17 95.58C18.6017 96.4994 19.2981 97.2689 20.17 97.79C20.7518 98.1288 21.4073 98.321 22.08 98.35C22.15 98.43 22.24 98.51 22.32 98.59L21.9 98.87C21.9 99.58 24.9 101.42 26.99 101.81C27.9016 101.987 28.8408 101.964 29.7423 101.741C30.6438 101.518 31.4859 101.101 32.21 100.52C33.46 99.47 35.33 94.54 34.38 91.81Z" fill="white"/>
<path d="M15.05 99.35C16.31 100.22 17.91 100.35 19.38 100.84C20.19 101.09 24.05 101.28 24.89 101.38L21.65 100C19.45 99.74 17.25 99.5233 15.05 99.35Z" fill="#81B727"/>
<path d="M46.73 86.92L50.23 87.55C49.32 86.73 48 86.78 46.73 86.92Z" fill="white"/>
<path d="M59.94 95C60.0386 94.5703 60.0889 94.1309 60.09 93.69C60.2215 93.2982 60.2733 92.884 60.2424 92.4718C60.2115 92.0597 60.0985 91.6578 59.91 91.29C59.6608 90.9426 59.3528 90.6414 59 90.4V90.4C58.5998 89.8757 58.1045 89.4313 57.54 89.09C57.46 89.09 57.38 89.02 57.31 88.98C56.72 88.45 56.15 87.89 55.6 87.32C55.39 87.1 55.17 86.82 55.25 86.53C54.7832 86.448 54.3047 86.4625 53.8437 86.5726C53.3828 86.6827 52.9493 86.886 52.57 87.17L53.5 88.06C53.11 87.88 52.71 87.71 52.31 87.56C52.192 87.5009 52.0619 87.4701 51.93 87.47C51.7167 87.5139 51.5236 87.6263 51.38 87.79C50.1994 88.9262 49.2902 90.3139 48.72 91.85L47.51 89.7C47.2984 90.2438 47.1735 90.8175 47.14 91.4L46.49 90.4C46.25 90.73 46.01 91.08 45.8 91.4C45.6003 91.385 45.3997 91.385 45.2 91.4L45.61 90C45.0872 89.6836 44.5043 89.4794 43.8983 89.4002C43.2924 89.321 42.6766 89.3686 42.09 89.54C41.6959 89.5778 41.3125 89.6898 40.96 89.87C40.7856 89.9573 40.6362 90.0876 40.526 90.2485C40.4158 90.4095 40.3484 90.5958 40.33 90.79C40.3495 91.1095 40.4567 91.4175 40.64 91.68L41.36 93L41.54 93.3C41.0634 93.926 40.7228 94.6447 40.54 95.41C40.1225 96.5441 39.9587 97.7558 40.06 98.96C40.1515 100.287 40.647 101.553 41.48 102.59C42.82 104.15 44.93 104.78 46.93 105.27C47.5408 105.431 48.1624 105.548 48.79 105.62C49.9346 106.1 51.2094 106.17 52.4 105.82C52.76 105.91 53.13 106.07 53.27 106.08C54.7842 106.294 56.324 105.938 57.59 105.08C58.4022 104.345 58.9356 103.353 59.1 102.27C59.2799 101.19 59.3336 100.093 59.26 99L58.58 99.65L57.58 100.07C57.58 99.95 57.58 99.81 57.64 99.68C58.4409 99.5516 59.1593 99.1134 59.64 98.46C59.9279 97.807 60.2621 97.1754 60.64 96.57C60.4809 96.0166 60.2453 95.4882 59.94 95V95Z" fill="white"/>
<path d="M54.29 108.74C53.8723 108.591 53.4334 108.51 52.99 108.5L54.29 108.74Z" fill="white"/>
<path d="M47.79 107.36C47.31 106.91 47.39 106.42 47.04 105.87C46.9278 105.67 46.7703 105.498 46.58 105.37L43.73 104.49C44.4233 105.359 45.0358 106.29 45.56 107.27C45.811 107.867 46.2061 108.393 46.71 108.8C47.264 109.107 47.9046 109.219 48.53 109.12C50.0076 108.832 51.4998 108.625 53 108.5L48.79 107.75C48.4264 107.718 48.0795 107.582 47.79 107.36V107.36Z" fill="#81B727"/>
<path d="M38.51 104.22C39.08 104.44 40.99 103.55 41.59 103.43L40.12 100.62C39.6385 101.222 39.044 101.725 38.37 102.1C38.0698 102.286 37.7231 102.383 37.37 102.38C36.63 102.32 36.11 101.55 35.37 101.48C36.7 101.91 37.18 103.72 38.51 104.22Z" fill="#81B727"/>
<path d="M58.81 103.7L57.81 105.03C58.1283 105.128 58.4637 105.158 58.7944 105.119C59.1251 105.079 59.4439 104.971 59.73 104.8C60.3537 104.492 60.927 104.091 61.43 103.61C61.0589 103.885 60.6006 104.017 60.14 103.98C59.6871 103.94 59.2406 103.846 58.81 103.7V103.7Z" fill="white"/>
<path d="M36.35 111.6H36.85C36.6839 111.58 36.516 111.58 36.35 111.6V111.6Z" fill="white"/>
<path d="M34.25 111.83L36.34 111.6C35.36 111.6 34.3 111.61 34.25 111.83Z" fill="white"/>
<path d="M37.14 111.59H36.85H37.13C36.99 112.16 36.87 112.73 36.76 113.28L37.51 111.67C38.3342 111.904 39.0451 112.43 39.51 113.15C39.8082 113.716 40.0688 114.3 40.29 114.9C40.6113 115.582 41.007 116.226 41.47 116.82C41.8873 117.458 42.4038 118.025 43 118.5C43.8263 119.05 44.773 119.393 45.76 119.5C46.7002 119.689 47.6736 119.623 48.58 119.31C49.0836 119.097 49.5602 118.825 50 118.5L53.06 116.38C52.06 115.87 51.74 114.62 51.2 113.62C50.71 112.803 50.1111 112.056 49.42 111.4C48.9811 110.886 48.4525 110.456 47.86 110.13C47.1973 109.877 46.5051 109.709 45.8 109.63C44.8279 109.327 43.818 109.162 42.8 109.14C41.9568 109.263 41.1473 109.556 40.42 110C39.57 110.47 38.73 111 37.91 111.5C37.7834 111.552 37.6469 111.576 37.51 111.57" fill="#81B727"/>
<path d="M29.73 113.2C28.9312 111.996 27.9571 110.917 26.84 110L27.78 109.84C27.0801 108.358 26.1856 106.976 25.12 105.73C24.6538 104.98 24.012 104.356 23.25 103.91C21.9894 103.221 20.549 102.931 19.12 103.08C18.3816 103.075 17.6511 103.232 16.98 103.54C16.4798 103.828 16.0332 104.2 15.66 104.64C13.77 106.76 12.57 109.57 10.19 111.13C9.50997 111.57 8.75998 111.89 8.09998 112.36C9.81998 112.22 11.7 112.12 13.1 113.12C13.5947 113.581 14.1379 113.986 14.72 114.33C15.2127 114.486 15.7364 114.517 16.2441 114.421C16.7519 114.325 17.228 114.105 17.63 113.78C18.48 113.2 19.17 112.4 20.01 111.78C21.9896 110.772 24.0852 110.009 26.25 109.51L29.73 113.2Z" fill="#81B727"/>
<path d="M53.82 74C53.33 73.38 53.03 72.64 52.6 72C52.2159 71.4277 51.7315 70.9297 51.17 70.53C50.9231 70.3079 50.619 70.1593 50.2921 70.101C49.9652 70.0427 49.6284 70.077 49.32 70.2V70.66C49.1237 70.427 48.906 70.2127 48.67 70.02C48.5 69.89 48.34 69.76 48.17 69.65C48.03 69.36 47.88 69.08 47.73 68.81C46.8291 66.87 45.4989 65.1603 43.84 63.81C43.7621 63.751 43.674 63.7069 43.58 63.68C43.4849 63.655 43.385 63.655 43.29 63.68C42.6238 63.872 41.9926 64.1691 41.42 64.56C40.42 65.08 39.36 65.36 38.42 65.87C38.28 65.94 38.15 66.03 38.01 66.11L37.8 66L38.32 65.4L37.83 64.69C37.31 65.13 32.26 65.58 30.89 65.69C31.1888 64.943 31.4295 64.1741 31.61 63.39C31.6647 63.2484 31.6647 63.0916 31.61 62.95C31.54 62.84 31.42 62.78 31.36 62.67C31.3 62.56 31.41 62.1 31.64 61.92C31.87 61.74 32.15 61.54 32.17 61.24C30.985 61.1666 29.8463 60.7535 28.89 60.05C28.3502 59.6511 27.7664 59.3156 27.15 59.05C26.839 58.9179 26.5003 58.8643 26.1638 58.8939C25.8272 58.9236 25.5031 59.0356 25.22 59.22L25.44 59.7C24.8957 59.4156 24.3267 59.1813 23.74 59C23.2795 57.8999 22.5711 56.9211 21.67 56.14C21.1471 55.6511 20.5062 55.3065 19.81 55.14C19.4537 55.0461 19.0784 55.0524 18.7255 55.1583C18.3726 55.2642 18.0557 55.4655 17.81 55.74C17.526 55.4569 17.1573 55.2743 16.76 55.22C16.489 55.2282 16.2244 55.3038 15.99 55.44C13.9682 56.2964 12.2897 57.8025 11.22 59.72C11.0589 60.0371 10.938 60.373 10.86 60.72C10.63 60.97 10.41 61.22 10.21 61.48L10.66 59.21C9.16621 59.2314 7.7016 59.6268 6.39999 60.36C6.25076 60.4257 6.1301 60.5428 6.05999 60.69C5.97999 60.93 6.15999 61.18 6.26999 61.41C6.39884 61.879 6.42274 62.3707 6.33999 62.85C6.33518 63.3559 6.37534 63.8612 6.45999 64.36C6.51285 64.8011 6.60659 65.2363 6.73999 65.66L5.73999 64.66L2.23999 66.26C1.91999 66.4 1.54999 66.63 1.57999 66.98C1.61095 67.1155 1.67253 67.242 1.75999 67.35L2.75999 68.88C3.22862 69.6014 3.77159 70.2718 4.37999 70.88C4.93547 71.4041 5.583 71.8211 6.28999 72.11C6.71442 72.3198 7.18152 72.429 7.65499 72.429C8.12846 72.429 8.59556 72.3198 9.01999 72.11C8.91781 72.463 8.89987 72.8351 8.9676 73.1964C9.03534 73.5576 9.18686 73.8979 9.40999 74.19C9.89265 74.7318 10.5155 75.1297 11.21 75.34C12.0612 75.6449 12.943 75.8561 13.84 75.97L12.25 75.89C13.269 77.095 14.5531 78.0479 16.0016 78.6742C17.4502 79.3005 19.024 79.5831 20.6 79.5C21.4234 79.438 22.2249 79.205 22.9532 78.8159C23.6815 78.4267 24.3207 77.89 24.83 77.24H25.28C25.2373 77.3206 25.2006 77.4041 25.17 77.49C25.1403 77.6014 25.1403 77.7186 25.17 77.83C25.2114 77.95 25.2839 78.057 25.38 78.14C26.5886 79.0686 27.8545 79.9203 29.17 80.69C29.956 81.2934 30.6325 82.0274 31.17 82.86L30.42 82.65C30.5093 83.7545 30.9078 84.8115 31.57 85.7C32.1751 86.7569 33.0045 87.6683 34 88.37C34.7733 88.8089 35.6282 89.085 36.5121 89.1813C37.396 89.2776 38.2903 89.1921 39.14 88.93C40.8223 88.4008 42.3802 87.5368 43.72 86.39C44.6435 86.545 45.5864 86.545 46.51 86.39C47.1724 86.3168 47.8109 86.0999 48.3809 85.7545C48.9509 85.4091 49.4386 84.9434 49.81 84.39C49.89 84.27 49.95 84.14 50.03 84.03C50.1608 83.8592 50.3082 83.7018 50.47 83.56L50.57 83.44L50.68 84.55C51.7385 83.9328 52.6963 83.1572 53.52 82.25C53.8602 81.743 54.1199 81.1864 54.29 80.6C54.81 79.1 55.21 77.6 55.6 76.01C55.24 75.22 54.4 74.69 53.82 74ZM38.82 85L38.23 84.22C38.43 84.22 38.63 84.22 38.83 84.22C39.7721 84.8664 40.7772 85.4159 41.83 85.86L38.82 85Z" fill="white"/>
<path d="M11.46 80.18L10.18 79.75C10.588 79.9438 11.0177 80.0882 11.46 80.18V80.18Z" fill="white"/>
<path d="M16.59 81.33C17.02 81.2754 17.4331 81.1282 17.8008 80.8986C18.1686 80.669 18.4821 80.3624 18.72 80L15.11 78.65C14.2616 79.0893 13.4371 79.5733 12.64 80.1C12.2668 80.255 11.8554 80.2934 11.46 80.21L13.92 81.02C14.7627 81.3739 15.6886 81.4814 16.59 81.33V81.33Z" fill="#81B727"/>
<path d="M22.2 81.1L21.71 79.31C22 80.33 22.1 80.79 22.2 81.1Z" fill="white"/>
<path d="M22.2 81.1L22.74 83.1C22.6252 82.4174 22.4444 81.7476 22.2 81.1Z" fill="white"/>
<path d="M38.17 113.87H28.26C31.5561 114.18 34.8739 114.18 38.17 113.87V113.87Z" fill="white"/>
<path d="M28.26 113.91C26.12 121.78 21.26 145.65 26.08 154.39C28.14 158.12 30.35 158.08 32.08 158.19L36.5 158.12C40.74 158.12 42.32 152.58 42.59 151.22C45.08 138.58 41.8 125.96 38.75 113.87L28.26 113.91Z" fill="white"/>
<path d="M232.73 70.34C232.61 70.34 232.48 70.34 232.36 70.34C231.36 70.5 229.16 71.18 228.76 71.85C221.31 84.49 217.27 103.34 215.88 117.94L226.11 156.07C226.11 156.07 223.57 135.49 224.66 123.19C225.25 116.59 230.66 93.4 230.66 93.4C231.521 90.3722 232.711 87.448 234.21 84.68C235.64 82.14 237.49 79.68 237.84 76.78C238.19 73.88 235.52 70.49 232.73 70.34Z" fill="white"/>
<path d="M179.88 21L173.49 13.23C174.21 16.87 177 19.17 179.88 21Z" fill="white"/>
<path d="M177.89 25.44L180.64 25.78C179.789 25.3549 178.819 25.2349 177.89 25.44V25.44Z" fill="white"/>
<path d="M165.47 26.22C165.293 26.3367 165.152 26.4991 165.06 26.69L167.67 25.69C167.287 25.6198 166.893 25.6306 166.514 25.7219C166.135 25.8132 165.779 25.9829 165.47 26.22Z" fill="white"/>
<path d="M187.81 58.75C187.083 59.4836 186.414 60.2727 185.81 61.11L191.15 57C189.874 57.1994 188.7 57.8146 187.81 58.75V58.75Z" fill="white"/>
<path d="M221.94 139.54C217.969 128.693 215.01 117.502 213.1 106.11C212.84 104.55 212.6 102.98 212.36 101.41C211.12 84.41 212.64 71.41 204.57 64.41C198.85 59.41 199.57 57.25 196.49 56.56L195.73 54.79C195.999 54.1144 196.204 53.4145 196.34 52.7L196.49 53.76C197.32 51.38 199.3 49.59 199.63 47.09C199.96 44.59 196.68 39.49 194.76 36.61C194.819 36.534 194.873 36.4537 194.92 36.37C196.2 34.22 196.05 32.84 195.78 30.68C195.725 30.2831 195.624 29.8938 195.48 29.52V29.44L195.85 29.93C195.85 31.93 199.15 20.86 195.85 12.83C195.11 10.9 189.53 2.94 182.85 2.52C180.68 2.39 178.08 2.72 176.36 4.21L176.55 4.46L176.24 4.59L176.36 4.21C175.55 3.15 161.2 3.38 158.69 19.21C157.91 24.14 157.69 29.21 160.32 33.53C160.39 33.28 160.46 33.04 160.52 32.79C160.648 36.0105 161.345 39.1829 162.58 42.16C164.128 46.0366 166.88 49.3139 170.43 51.51C171.495 52.3035 172.607 53.0315 173.76 53.69C174.722 54.1335 175.788 54.303 176.84 54.18C176.64 54.29 176.44 54.4 176.23 54.5C176.23 54.69 177.01 60.96 177.03 61.14L176.83 63.22L176.77 63.67L174.57 64.67C173.531 65.0912 172.623 65.7816 171.94 66.67C169.445 69.6918 167.885 73.3754 167.45 77.27C166.92 81.13 166.39 82.49 166.82 86.35C165.756 92.0648 165.23 97.8669 165.25 103.68C165.25 105.45 165.96 114.99 166.57 122.12L165.57 122.38L145.5 127.64C145.15 127.74 144.73 127.89 144.66 128.25C144.642 128.512 144.728 128.771 144.9 128.97C144.97 129.08 145.03 129.19 145.09 129.3L144.32 129.24C140.86 130.05 137.2 129.42 133.76 130.3C132.15 130.71 130.63 131.44 129.04 131.91C128.74 132 128.44 132.07 128.13 132.14L126.93 131.06L124.66 129.57C123.632 128.683 122.318 128.196 120.96 128.2H102.12C101.867 128.201 101.619 128.271 101.403 128.403C101.188 128.535 101.013 128.724 100.897 128.949C100.781 129.174 100.73 129.427 100.748 129.679C100.766 129.931 100.853 130.174 101 130.38L119.23 157.31C119.72 157.997 120.366 158.558 121.115 158.946C121.865 159.334 122.696 159.538 123.54 159.54H155.06C155.337 159.538 155.607 159.452 155.833 159.293C156.06 159.134 156.233 158.91 156.328 158.65C156.424 158.39 156.438 158.107 156.369 157.839C156.299 157.571 156.15 157.331 155.94 157.15L150.76 152.58L149.76 151.66C150.79 150.907 151.759 150.074 152.66 149.17L157.15 147.47C157.51 148.881 158.242 150.169 159.27 151.2L160.15 152.55C159.87 153.17 160.94 153.44 161.6 153.28C176.487 149.717 191.779 148.133 207.08 148.57C210.94 148.68 214.93 148.9 218.54 147.51C220.44 146.78 222.33 145.37 222.65 143.36C222.743 142.047 222.498 140.732 221.94 139.54V139.54ZM165 136.41L163.79 139.77C164.1 138.99 164.37 138.27 164.62 137.58L163.79 140.13V141.22C164.28 141.34 158.24 141.06 158.73 141.14H152.41C148.047 140.957 143.679 141.33 139.41 142.25L136.62 139.73L137.08 139.5C139.91 137.96 142.43 135.63 145.59 135.07L146.59 134.52C146.61 135.141 146.58 135.763 146.5 136.38L154.11 135.51C161.01 134.72 163.38 134.71 165.64 134.39L165 136.41Z" fill="white"/>
<path d="M101.8 154.34L90.51 134.8C90.2354 134.201 89.7942 133.694 89.2391 133.34C88.6841 132.985 88.0387 132.798 87.38 132.8H80.38H78.76L82.85 104.27L83.14 105.04L92.83 131.42C93.34 132.77 94.23 132.68 95.11 132.31L95.54 132.09C95.7842 131.967 95.9743 131.758 96.074 131.503C96.1736 131.249 96.1758 130.966 96.08 130.71L64.2 45.09C64.1487 44.968 64.0738 44.8574 63.9795 44.7646C63.8852 44.6718 63.7734 44.5987 63.6507 44.5494C63.5279 44.5001 63.3966 44.4756 63.2643 44.4775C63.132 44.4793 63.0014 44.5073 62.88 44.56L62 45C61.797 45.1034 61.6384 45.277 61.5538 45.4885C61.4692 45.7001 61.4643 45.9351 61.54 46.15L80.74 98.48L81 99.19L75.64 132.91H75.3C74.8538 132.924 74.4158 133.033 74.0152 133.23C73.6146 133.427 73.2605 133.707 72.9766 134.051C72.6927 134.396 72.4855 134.797 72.3688 135.228C72.2521 135.659 72.2287 136.109 72.3 136.55L74.42 149.74C74.6295 151.728 75.5662 153.569 77.0501 154.909C78.534 156.249 80.4606 156.994 82.46 157H100.06C100.375 157 100.686 156.921 100.963 156.771C101.24 156.621 101.476 156.404 101.649 156.14C101.821 155.876 101.926 155.573 101.952 155.259C101.978 154.945 101.926 154.629 101.8 154.34V154.34Z" fill="white"/>
<path d="M176.68 4C175.05 3.9 161.2 3.42 158.68 19.29C158.68 19.29 156.82 29.36 160.26 32.77C161.47 30.35 162.88 21.87 166.33 18.59C168.425 16.6121 170.733 14.8716 173.21 13.4C173.21 13.4 174.38 17.28 176.67 18.87C178.96 20.46 183.29 22.7 185.58 24.96C187.87 27.22 189.68 30.84 188.99 32.07C190.99 28.53 190.93 28.46 191.36 28.17C191.79 27.88 194.08 27.05 195.1 28.64L195.9 30.19C197.134 27.5589 197.691 24.6611 197.52 21.76C197.33 16.62 195.68 10.36 190.61 6.38C182.53 -2.14577e-06 176.68 4 176.68 4Z" fill="#81B727"/>
<path d="M191.39 38.55C192.14 38.6637 192.906 38.5081 193.552 38.1109C194.198 37.7136 194.683 37.1005 194.92 36.38C196.52 38.99 199.49 42.89 199.68 45.38C199.87 47.87 198.22 51.03 195.83 54.56C193.09 49.8 190.4 45.22 190.62 42.3C191.022 41.0842 191.28 39.8257 191.39 38.55Z" fill="#81B727"/>
<path d="M150.76 152.55L155.94 157.12C156.15 157.301 156.299 157.541 156.369 157.809C156.438 158.077 156.424 158.36 156.328 158.62C156.233 158.88 156.06 159.104 155.833 159.263C155.607 159.422 155.337 159.508 155.06 159.51H123.54C122.696 159.508 121.865 159.304 121.115 158.916C120.366 158.528 119.72 157.967 119.23 157.28L101 130.35C100.853 130.144 100.766 129.901 100.748 129.649C100.73 129.397 100.781 129.144 100.897 128.919C101.013 128.694 101.188 128.505 101.403 128.373C101.619 128.241 101.867 128.171 102.12 128.17H121C122.358 128.166 123.672 128.653 124.7 129.54L126.97 131.03" stroke="#81B727" stroke-width="0.85" stroke-linecap="round" stroke-linejoin="round"/>
<path d="M80.4 132.78H87.4C88.0587 132.778 88.7041 132.965 89.2592 133.32C89.8142 133.674 90.2554 134.181 90.53 134.78L101.82 154.32C101.951 154.61 102.006 154.928 101.982 155.245C101.958 155.562 101.854 155.868 101.681 156.135C101.508 156.401 101.271 156.62 100.991 156.772C100.711 156.923 100.398 157.001 100.08 157H82.46C80.4539 157.001 78.5187 156.258 77.0282 154.916C75.5377 153.573 74.5978 151.725 74.39 149.73L72.27 136.54C72.1987 136.099 72.2222 135.649 72.3388 135.218C72.4555 134.787 72.6627 134.386 72.9466 134.041C73.2305 133.697 73.5846 133.417 73.9852 133.22C74.3858 133.023 74.8238 132.914 75.27 132.9H75.33" stroke="#81B727" stroke-width="0.9" stroke-linecap="round" stroke-linejoin="round"/>
<path d="M80.74 98.48L61.52 46.15C61.4457 45.9328 61.4536 45.6959 61.542 45.484C61.6304 45.2722 61.7933 45.1 62 45L62.9 44.56C63.0213 44.5073 63.1519 44.4793 63.2842 44.4774C63.4165 44.4756 63.5479 44.5001 63.6706 44.5494C63.7934 44.5987 63.9052 44.6718 63.9995 44.7646C64.0938 44.8574 64.1687 44.968 64.22 45.09L96.12 130.73C96.2158 130.986 96.2136 131.269 96.114 131.523C96.0143 131.778 95.8242 131.987 95.58 132.11L95.15 132.33C94.27 132.7 93.38 132.79 92.87 131.44L83.18 105.06" stroke="#81B727" stroke-width="0.9" stroke-linecap="round" stroke-linejoin="round"/>
<path d="M82.84 104.19L76.97 146.66" stroke="#81B727" stroke-width="0.9" stroke-linecap="round" stroke-linejoin="round"/>
<path d="M75.06 137.38L80.74 98.48" stroke="#81B727" stroke-width="0.9" stroke-linecap="round" stroke-linejoin="round"/>
<path d="M38.16 74.37C38.0413 73.9886 38.0072 73.5859 38.06 73.19L38.21 71.42C38.2198 71.2099 38.2672 71.0033 38.35 70.81C38.6061 70.4627 38.9853 70.2266 39.41 70.15C39.702 70.0292 40.0266 70.0116 40.33 70.1C40.5118 70.1965 40.6692 70.3333 40.79 70.5L42.18 72.12" stroke="#81B727" stroke-width="0.9" stroke-linecap="round" stroke-linejoin="round"/>
<path d="M40.08 73.27C39.9071 73.3402 39.7531 73.4498 39.63 73.59C38.9814 74.2528 38.54 75.0903 38.36 76C38.2985 76.2085 38.2818 76.4277 38.3111 76.6432C38.3404 76.8586 38.415 77.0654 38.53 77.25C38.8297 77.5512 39.2351 77.7234 39.66 77.73C40.3882 77.851 41.136 77.7427 41.8 77.42" stroke="#81B727" stroke-width="0.9" stroke-linecap="round" stroke-linejoin="round"/>
<path d="M41.25 75.09C41.25 75.09 41.17 75.09 41.14 75.09C41.1255 75.0445 41.1255 74.9955 41.14 74.95C41.1073 74.6504 41.152 74.3474 41.27 74.07C41.3325 73.9331 41.4369 73.8196 41.5681 73.7459C41.6993 73.6722 41.8506 73.6421 42 73.66C42.0602 73.6698 42.116 73.6977 42.16 73.74C42.2051 73.7964 42.239 73.8609 42.26 73.93C42.5316 74.7447 42.7487 75.5765 42.91 76.42" stroke="#81B727" stroke-width="0.9" stroke-linecap="round" stroke-linejoin="round"/>
<path d="M35.61 73.55C35.7654 72.3018 36.1628 71.096 36.78 70C37.0786 69.4431 37.4634 68.9368 37.92 68.5C38.3848 68.0698 38.9653 67.7848 39.59 67.68C40.0811 67.6212 40.579 67.6689 41.05 67.82C42.1329 68.2082 43.1459 68.7687 44.05 69.48" stroke="#81B727" stroke-width="0.9" stroke-linecap="round" stroke-linejoin="round"/>
<path d="M46.23 70.82C46.4562 71.2906 46.6435 71.7788 46.79 72.28C46.9781 73.0927 47.0221 73.9321 46.92 74.76C46.8838 75.2627 46.776 75.7577 46.6 76.23C46.4311 76.649 46.1946 77.0375 45.9 77.38C45.0193 78.4256 43.7765 79.1005 42.42 79.27" stroke="#81B727" stroke-width="0.9" stroke-linecap="round" stroke-linejoin="round"/>
<path d="M36.72 69.18C35.58 69.47 34.44 69.8 33.31 70.18C33.1041 70.2338 32.9128 70.3329 32.75 70.47C32.6341 70.6032 32.5488 70.7603 32.5 70.93C32.2092 71.8171 32.1506 72.7639 32.33 73.68C32.5339 74.4858 32.8326 75.2646 33.22 76C33.9774 77.6939 34.8668 79.3255 35.88 80.88C36.2952 81.5221 36.8004 82.1013 37.38 82.6C37.9748 83.0912 38.7187 83.3661 39.49 83.38" stroke="#81B727" stroke-width="0.9" stroke-linecap="round" stroke-linejoin="round"/>
<path d="M42 83.9C42.7671 83.942 43.5343 83.8193 44.25 83.54C44.7569 83.2912 45.2143 82.9524 45.6 82.54C47.1007 81.0904 48.114 79.2105 48.5 77.16" stroke="#81B727" stroke-width="0.9" stroke-linecap="round" stroke-linejoin="round"/>
<path d="M50.82 74.64C51.425 76.1111 51.8221 77.6593 52 79.24C52.0775 80.0308 51.9886 80.8292 51.7388 81.5836C51.4891 82.3379 51.0841 83.0316 50.55 83.62C50.3882 83.7618 50.2408 83.9192 50.11 84.09C50.03 84.2 49.97 84.33 49.89 84.45C49.5186 85.0034 49.0309 85.4691 48.4609 85.8145C47.8909 86.1599 47.2524 86.3768 46.59 86.45C45.5581 86.6219 44.5031 86.5982 43.48 86.38C41.792 85.9435 40.2011 85.1939 38.79 84.17" stroke="#81B727" stroke-width="0.9" stroke-linecap="round" stroke-linejoin="round"/>
<path d="M35 67.76C35.3875 67.4745 35.8156 67.2487 36.27 67.09C37.03 66.74 37.69 66.22 38.43 65.84C39.43 65.33 40.5 65.05 41.43 64.53C42.0026 64.1391 42.6338 63.842 43.3 63.65C43.395 63.625 43.495 63.625 43.59 63.65C43.684 63.6769 43.7721 63.7209 43.85 63.78C45.5089 65.1303 46.8391 66.84 47.74 68.78C48.4147 69.8909 48.8854 71.1135 49.13 72.39C49.2523 73.0319 49.2209 73.6936 49.0384 74.3211C48.8559 74.9485 48.5275 75.5238 48.08 76" stroke="#81B727" stroke-width="0.9" stroke-linecap="round" stroke-linejoin="round"/>
<path d="M49.32 70.15C49.6285 70.0269 49.9652 69.9926 50.2921 70.051C50.619 70.1093 50.9231 70.2579 51.17 70.48C51.736 70.8945 52.2208 71.4098 52.6 72C53.03 72.65 53.33 73.39 53.82 74C54.31 74.61 55.24 75.26 55.64 76.11C55.25 77.65 54.85 79.2 54.33 80.7C54.16 81.2864 53.9002 81.843 53.56 82.35C52.7363 83.2572 51.7786 84.0328 50.72 84.65" stroke="#81B727" stroke-width="0.9" stroke-linecap="round" stroke-linejoin="round"/>
<path d="M38.32 65.4L37.83 64.69C37.25 65.17 31.14 65.69 30.58 65.69C30.22 66.5 29.84 67.3 29.43 68.08C28.9833 68.8668 28.5955 69.6858 28.27 70.53C27.92 71.3847 27.8261 72.3229 28 73.23C28.0942 73.6671 28.29 74.0758 28.5714 74.4233C28.8528 74.7707 29.212 75.0471 29.62 75.23" stroke="#81B727" stroke-width="0.9" stroke-linecap="round" stroke-linejoin="round"/>
<path d="M30.85 74.56C30.0206 75.7166 29.5828 77.1082 29.6008 78.5314C29.6188 79.9546 30.0916 81.3347 30.95 82.47C31.4715 83.183 32.1577 83.7594 32.95 84.15C33.6062 84.4375 34.2944 84.6457 35 84.77C36.2779 85.1427 37.6158 85.265 38.94 85.13" stroke="#81B727" stroke-width="0.9" stroke-linecap="round" stroke-linejoin="round"/>
<path d="M30.4 82.63C30.4893 83.7345 30.8878 84.7915 31.55 85.68C32.1584 86.7462 32.9951 87.6648 34 88.37C34.7733 88.8089 35.6281 89.085 36.5121 89.1813C37.396 89.2776 38.2903 89.1921 39.14 88.93C40.8388 88.3967 42.4109 87.5222 43.76 86.36" stroke="#81B727" stroke-width="0.9" stroke-linecap="round" stroke-linejoin="round"/>
<path d="M29.73 76.08C28.726 75.7034 27.632 75.6372 26.59 75.89C26.2529 76.0347 25.9513 76.2509 25.7061 76.5237C25.4609 76.7966 25.278 77.1194 25.17 77.47C25.1403 77.5814 25.1403 77.6986 25.17 77.81C25.2114 77.93 25.2839 78.037 25.38 78.12C26.5886 79.0486 27.8545 79.9002 29.17 80.67C30.0384 81.3228 30.772 82.1378 31.33 83.07" stroke="#81B727" stroke-width="0.9" stroke-linecap="round" stroke-linejoin="round"/>
<path d="M36.45 89.45C35.45 96.73 34.59 106 33.94 113.32" stroke="#81B727" stroke-width="0.9" stroke-linecap="round" stroke-linejoin="round"/>
<path d="M28.33 102.44C29.4402 105.841 30.1123 109.369 30.33 112.94" stroke="#81B727" stroke-width="0.9" stroke-linecap="round" stroke-linejoin="round"/>
<path d="M24.8 87.9C24.73 87.69 24.47 87.63 24.26 87.61C22.7891 87.4515 21.3042 87.4784 19.84 87.69C19.7567 87.6934 19.675 87.7138 19.6 87.75C19.5217 87.7998 19.4581 87.8696 19.4159 87.9523C19.3737 88.0349 19.3544 88.1274 19.36 88.22C19.3723 88.404 19.4198 88.5839 19.5 88.75C19.6622 89.1577 19.8492 89.5551 20.06 89.94C20.4285 90.57 20.9331 91.1098 21.5369 91.5198C22.1407 91.9298 22.8285 92.1998 23.55 92.31L28.87 93.09C29.37 92.66 29.87 92.23 30.36 91.75C30.7454 91.3865 31.0666 90.9605 31.31 90.49C31.6423 89.6381 31.7723 88.7207 31.69 87.81" stroke="#81B727" stroke-width="0.9" stroke-linecap="round" stroke-linejoin="round"/>
<path d="M23.91 90.32C24.803 88.9655 25.5442 87.5168 26.12 86C26.1474 85.9213 26.1918 85.8497 26.25 85.79C26.44 85.65 26.68 85.85 26.83 86.03C27.4711 86.7701 27.9908 87.6072 28.37 88.51C28.5601 88.9619 28.6428 89.4518 28.6116 89.9412C28.5803 90.4305 28.436 90.9059 28.19 91.33C27.9307 91.7458 27.5236 92.0481 27.0506 92.1761C26.5775 92.3041 26.0736 92.2483 25.64 92.02" stroke="#81B727" stroke-width="0.9" stroke-linecap="round" stroke-linejoin="round"/>
<path d="M20.59 87.47L20.73 86.17C20.7305 86.0665 20.7618 85.9655 20.82 85.88C20.9139 85.7907 21.0323 85.7315 21.16 85.71C21.7091 85.5246 22.2305 85.2656 22.71 84.94L25 83.51C25.5611 83.1965 26.0874 82.8245 26.57 82.4C26.6386 82.3266 26.7246 82.2715 26.82 82.24C26.9195 82.2272 27.0205 82.2446 27.11 82.29C28.48 82.83 29.11 84.36 29.57 85.77C29.8563 86.5585 30.0019 87.3911 30 88.23C29.9917 88.6484 29.8926 89.0601 29.7096 89.4365C29.5266 89.8129 29.264 90.1451 28.94 90.41" stroke="#81B727" stroke-width="0.9" stroke-linecap="round" stroke-linejoin="round"/>
<path d="M19.92 92.66C19.3075 92.3947 18.7552 92.008 18.2963 91.5234C17.8374 91.0387 17.4814 90.466 17.25 89.84C16.8061 88.5748 16.7539 87.2053 17.1 85.91C17.169 85.5669 17.3238 85.247 17.55 84.98C17.822 84.7516 18.1441 84.5906 18.49 84.51L20.49 83.88C21.75 83.48 23.2 83.11 24.31 83.82" stroke="#81B727" stroke-width="0.9" stroke-linecap="round" stroke-linejoin="round"/>
<path d="M28.43 95C27.6003 95.619 26.6403 96.0407 25.6232 96.233C24.606 96.4254 23.5584 96.3833 22.56 96.11C20.56 95.59 16.45 93.81 15.13 92.22C15.13 92.22 15.43 91.49 17 91.03" stroke="#81B727" stroke-width="0.9" stroke-linecap="round" stroke-linejoin="round"/>
<path d="M18 94.75C17.961 94.9197 17.9559 95.0954 17.9851 95.267C18.0143 95.4386 18.0771 95.6028 18.17 95.75C18.6017 96.6694 19.2981 97.4389 20.17 97.96C21.0408 98.4816 22.0748 98.6599 23.07 98.46C23.3696 98.372 23.6783 98.3184 23.99 98.3C24.57 98.3 25.08 98.73 25.66 98.73C26.266 98.6599 26.8232 98.3634 27.22 97.9C28.2238 97.1235 28.9299 96.0254 29.22 94.79" stroke="#81B727" stroke-width="0.9" stroke-linecap="round" stroke-linejoin="round"/>
<path d="M32.58 91.33C32.7945 92.422 32.5872 93.5547 32 94.5C31.3964 95.4302 30.666 96.2716 29.83 97" stroke="#81B727" stroke-width="0.9" stroke-linecap="round" stroke-linejoin="round"/>
<path d="M29.09 97.89C28.9084 98.2626 28.7837 98.6604 28.72 99.07C28.6715 99.8209 28.7805 100.574 29.04 101.28L29.09 101.17" stroke="#81B727" stroke-width="0.9" stroke-linecap="round" stroke-linejoin="round"/>
<path d="M21.92 99C21.92 99.72 24.92 101.56 27.01 102C27.9215 102.177 28.8608 102.154 29.7623 101.931C30.6638 101.708 31.5059 101.291 32.23 100.71C33.63 99.56 35.86 93.35 33.84 91.07" stroke="#81B727" stroke-width="0.9" stroke-linecap="round" stroke-linejoin="round"/>
<path d="M21.65 100C19.45 99.76 17.25 99.5533 15.05 99.38C16.31 100.25 17.91 100.38 19.38 100.87C20.19 101.12 22.96 101.81 23.79 101.87" stroke="#81B727" stroke-width="0.9" stroke-linecap="round" stroke-linejoin="round"/>
<path d="M33.7 100.17C34.0896 99.777 34.6168 99.5511 35.17 99.54C35.5661 99.5699 35.9639 99.5699 36.36 99.54C36.809 99.4153 37.2077 99.153 37.5 98.79C35.35 101.46 33.37 101.01 31.18 101.31" stroke="#81B727" stroke-width="0.9" stroke-linecap="round" stroke-linejoin="round"/>
<path d="M41.39 103.43C38.51 105.77 37.47 109.84 36.76 113.32" stroke="#81B727" stroke-width="0.9" stroke-linecap="round" stroke-linejoin="round"/>
<path d="M48.15 93.7C48.5789 91.4404 49.6967 89.3689 51.35 87.77C51.4936 87.6063 51.6867 87.4939 51.9 87.45C52.0319 87.4501 52.162 87.4809 52.28 87.54C53.2231 87.8435 54.1038 88.3143 54.88 88.93C55.8543 89.8809 56.4391 91.1609 56.52 92.52C56.5944 93.8685 56.4458 95.22 56.08 96.52" stroke="#81B727" stroke-width="0.9" stroke-linecap="round" stroke-linejoin="round"/>
<path d="M57.38 92.75C58.1593 93.1183 58.8545 93.643 59.4223 94.2916C59.99 94.9402 60.4181 95.6988 60.68 96.52C60.3021 97.1254 59.968 97.757 59.68 98.41C59.2734 98.9013 58.7466 99.2792 58.1509 99.507C57.5552 99.7348 56.9107 99.8047 56.28 99.71C55.469 99.6885 54.6798 99.4428 54 99C53.6734 98.7738 53.4028 98.4761 53.2087 98.1295C53.0146 97.7829 52.9022 97.3966 52.88 97" stroke="#81B727" stroke-width="0.9" stroke-linecap="round" stroke-linejoin="round"/>
<path d="M52.17 93.26C52.439 92.8176 52.8308 92.4629 53.2978 92.2392C53.7647 92.0155 54.2866 91.9324 54.8 92C54.8502 91.9997 54.8997 92.0124 54.9435 92.037C54.9873 92.0615 55.024 92.097 55.05 92.14C55.0698 92.1984 55.0698 92.2616 55.05 92.32C54.7857 93.3974 54.2718 94.3976 53.55 95.24C53.528 95.1966 53.5166 95.1486 53.5166 95.1C53.5166 95.0513 53.528 95.0034 53.55 94.96" stroke="#81B727" stroke-width="0.9" stroke-linecap="round" stroke-linejoin="round"/>
<path d="M52.09 91.38C51.7658 91.7997 51.5805 92.31 51.56 92.84C51.5231 93.3519 51.5945 93.8658 51.7696 94.3482C51.9447 94.8306 52.2196 95.2706 52.5763 95.6396C52.933 96.0086 53.3636 96.2982 53.8398 96.4895C54.316 96.6808 54.8272 96.7696 55.34 96.75" stroke="#81B727" stroke-width="0.9" stroke-linecap="round" stroke-linejoin="round"/>
<path d="M47.51 89.7C47.1982 90.5883 47.0754 91.5319 47.1495 92.4704C47.2235 93.4089 47.4928 94.3216 47.94 95.15C49.2273 97.496 51.1789 99.4094 53.55 100.65" stroke="#81B727" stroke-width="0.9" stroke-linecap="round" stroke-linejoin="round"/>
<path d="M46.49 90.4C45.5189 91.5405 44.9435 92.965 44.85 94.46C44.8744 95.1395 44.9922 95.8125 45.2 96.46C45.3092 96.9305 45.4878 97.3821 45.73 97.8C45.8576 98.0075 46.0296 98.1842 46.2337 98.3173C46.4377 98.4504 46.6686 98.5367 46.91 98.57C46.97 98.94 46.82 99.34 46.91 99.7C47 100.06 47.65 100.42 48.17 100.54C49.9004 100.973 51.6687 101.237 53.45 101.33" stroke="#81B727" stroke-width="0.9" stroke-linecap="round" stroke-linejoin="round"/>
<path d="M52 102.41C52 102.41 51.92 102.41 51.94 102.41C51.96 102.41 52.03 102.41 52.08 102.41C53.3701 102.601 54.6877 102.433 55.8888 101.925C57.0899 101.417 58.1281 100.588 58.89 99.53" stroke="#81B727" stroke-width="0.9" stroke-linecap="round" stroke-linejoin="round"/>
<path d="M59.26 99C59.3453 100.084 59.305 101.175 59.14 102.25C58.9626 103.311 58.4303 104.281 57.63 105C56.364 105.858 54.8242 106.214 53.31 106C53.12 106 52.56 105.72 52.11 105.68" stroke="#81B727" stroke-width="0.9" stroke-linecap="round" stroke-linejoin="round"/>
<path d="M52.54 87.15C52.9193 86.866 53.3528 86.6627 53.8137 86.5526C54.2747 86.4425 54.7532 86.428 55.22 86.51C55.14 86.8 55.36 87.08 55.57 87.3C56.6355 88.4163 57.782 89.4524 59 90.4C59.3214 90.583 59.6029 90.8285 59.8278 91.122C60.0528 91.4156 60.2168 91.7512 60.31 92.1091C60.4032 92.467 60.4238 92.8399 60.3705 93.2059C60.3173 93.5719 60.1913 93.9235 60 94.24" stroke="#81B727" stroke-width="0.9" stroke-linecap="round" stroke-linejoin="round"/>
<path d="M45.61 90C45.0871 89.6836 44.5042 89.4794 43.8983 89.4002C43.2923 89.321 42.6765 89.3686 42.09 89.54C41.6959 89.5778 41.3124 89.6897 40.96 89.87C40.7855 89.9573 40.6362 90.0876 40.526 90.2485C40.4158 90.4095 40.3483 90.5958 40.33 90.79C40.3494 91.1095 40.4567 91.4175 40.64 91.68L41.36 93C41.5028 93.276 41.6773 93.5344 41.88 93.77C42.19 94.11 42.62 94.34 42.96 94.66C43.4148 95.0912 43.7049 95.6677 43.78 96.29" stroke="#81B727" stroke-width="0.9" stroke-linecap="round" stroke-linejoin="round"/>
<path d="M50.23 87.55C49.32 86.73 47.95 86.78 46.73 86.92" stroke="#81B727" stroke-width="0.9" stroke-linecap="round" stroke-linejoin="round"/>
<path d="M40.8 94.8C40.2204 96.0951 39.9795 97.5162 40.1 98.93C40.1915 100.257 40.687 101.523 41.52 102.56C42.86 104.12 44.97 104.75 46.97 105.24C47.818 105.487 48.6968 105.611 49.58 105.61C50.0171 105.608 50.4494 105.519 50.8513 105.347C51.2532 105.175 51.6166 104.925 51.92 104.61" stroke="#81B727" stroke-width="0.9" stroke-linecap="round" stroke-linejoin="round"/>
<path d="M43.73 104.49C44.4233 105.359 45.0358 106.29 45.56 107.27C45.811 107.867 46.2061 108.393 46.71 108.8C47.264 109.107 47.9046 109.219 48.53 109.12C50.47 108.96 52.46 108.07 54.29 108.74L48.78 107.74C48.4163 107.708 48.0695 107.572 47.78 107.35C47.3 106.9 47.38 106.41 47.03 105.86C46.9178 105.66 46.7603 105.488 46.57 105.36" stroke="#81B727" stroke-width="0.9" stroke-linecap="round" stroke-linejoin="round"/>
<path d="M40.12 100.62C39.6385 101.222 39.044 101.725 38.37 102.1C38.0698 102.286 37.7231 102.383 37.37 102.38C36.63 102.32 36.11 101.55 35.37 101.48C36.72 101.91 37.2 103.72 38.53 104.22C39.1206 104.395 39.7494 104.395 40.34 104.22" stroke="#81B727" stroke-width="0.9" stroke-linecap="round" stroke-linejoin="round"/>
<path d="M58.81 103.7C59.2438 103.847 59.6937 103.941 60.15 103.98C60.6106 104.017 61.0689 103.885 61.44 103.61C60.937 104.091 60.3637 104.492 59.74 104.8C59.4539 104.971 59.1352 105.079 58.8044 105.119C58.4737 105.158 58.1383 105.128 57.82 105.03" stroke="#81B727" stroke-width="0.9" stroke-linecap="round" stroke-linejoin="round"/>
<path d="M34.25 111.83C34.34 111.44 37.64 111.72 37.97 111.5C38.79 110.97 39.63 110.5 40.48 110C41.2072 109.556 42.0168 109.263 42.86 109.14C43.878 109.162 44.8879 109.327 45.86 109.63C46.5681 109.71 47.2635 109.878 47.93 110.13C48.5177 110.458 49.0425 110.888 49.48 111.4C50.1711 112.056 50.7699 112.803 51.26 113.62C51.8 114.62 52.11 115.87 53.12 116.38L50 118.5C49.5555 118.837 49.072 119.119 48.56 119.34C47.6536 119.653 46.6802 119.719 45.74 119.53C44.753 119.423 43.8063 119.08 42.98 118.53C42.3941 118.066 41.8846 117.512 41.47 116.89C41.007 116.295 40.6113 115.652 40.29 114.97C40.0688 114.37 39.8082 113.786 39.51 113.22C39.1694 112.694 38.6937 112.268 38.1326 111.989C37.5714 111.709 36.9454 111.585 36.32 111.63" stroke="#81B727" stroke-width="0.9" stroke-linecap="round" stroke-linejoin="round"/>
<path d="M27.78 109.82C27.0801 108.338 26.1856 106.956 25.12 105.71C24.6538 104.96 24.012 104.336 23.25 103.89C21.9894 103.201 20.549 102.911 19.12 103.06C18.3816 103.055 17.6511 103.212 16.98 103.52C16.4798 103.808 16.0332 104.18 15.66 104.62C13.77 106.74 12.57 109.55 10.19 111.11C9.50997 111.55 8.75998 111.87 8.09998 112.34C9.81998 112.2 11.7 112.1 13.1 113.1C13.5947 113.561 14.1379 113.966 14.72 114.31C15.2127 114.466 15.7364 114.497 16.2441 114.401C16.7519 114.305 17.228 114.085 17.63 113.76C18.48 113.18 19.17 112.38 20.01 111.76C21.4296 110.83 23.0832 110.32 24.78 110.29" stroke="#81B727" stroke-width="0.9" stroke-linecap="round" stroke-linejoin="round"/>
<path d="M17.4 107.88C19.7159 107.152 22.2231 107.346 24.4 108.42C26.5601 109.514 28.3896 111.164 29.7 113.2" stroke="#81B727" stroke-width="0.9" stroke-linecap="round" stroke-linejoin="round"/>
<path d="M13.63 64.63C13.63 63.19 13.71 61.76 13.85 60.33C13.8495 60.1054 13.9082 59.8847 14.02 59.69C14.2305 59.4639 14.5136 59.3188 14.82 59.28C15.2167 59.1529 15.6432 59.1529 16.04 59.28C16.2456 59.3921 16.4286 59.5413 16.58 59.72" stroke="#81B727" stroke-width="0.9" stroke-linecap="round" stroke-linejoin="round"/>
<path d="M14.88 66C15.1146 66.1906 15.3959 66.3151 15.6947 66.3608C15.9935 66.4065 16.2991 66.3717 16.58 66.26C16.82 66.18 16.95 65.93 17.1 65.73C17.3466 65.4583 17.534 65.1382 17.65 64.79C17.7267 64.3637 17.7027 63.9254 17.58 63.51" stroke="#81B727" stroke-width="0.9" stroke-linecap="round" stroke-linejoin="round"/>
<path d="M12.81 61.09C11.7016 61.0243 10.5936 61.2267 9.57999 61.68C9.53184 61.694 9.48728 61.7183 9.44933 61.7511C9.41137 61.7839 9.3809 61.8244 9.35999 61.87C9.35999 62 9.40999 62.13 9.50999 62.23C9.87685 62.535 10.1563 62.9318 10.32 63.38C10.46 64 10.49 64.63 10.63 65.25" stroke="#81B727" stroke-width="0.9" stroke-linecap="round" stroke-linejoin="round"/>
<path d="M16.32 58.84C17.0167 58.286 17.8554 57.9395 18.74 57.84C19.55 60.08 20.37 62.47 19.87 64.84" stroke="#81B727" stroke-width="0.9" stroke-linecap="round" stroke-linejoin="round"/>
<path d="M21 64.53C19.7191 66.4296 18.215 68.1687 16.52 69.71C16.52 69.71 16.52 69.8 16.46 69.84C16.4 69.88 16.38 69.93 16.34 69.84C16.3 69.75 16.41 69.76 16.4 69.84" stroke="#81B727" stroke-width="0.9" stroke-linecap="round" stroke-linejoin="round"/>
<path d="M16.71 69.84C18.2717 69.4441 19.7331 68.7253 21 67.73C21.7656 67.1307 22.3221 66.3047 22.59 65.37C23.47 63.04 23.15 61.46 20.83 59.31" stroke="#81B727" stroke-width="0.9" stroke-linecap="round" stroke-linejoin="round"/>
<path d="M23.25 63C23.25 63 23.25 62.95 23.31 62.93C23.6907 62.685 24.1375 62.5628 24.59 62.58C24.9304 62.5776 25.2617 62.6904 25.53 62.9C25.6608 63.0046 25.7613 63.1423 25.8211 63.2987C25.8809 63.4552 25.8978 63.6248 25.87 63.79C25.7755 64.0646 25.6057 64.3072 25.38 64.49C24.33 65.49 22.77 66.32 21.62 67.2" stroke="#81B727" stroke-width="0.9" stroke-linecap="round" stroke-linejoin="round"/>
<path d="M8.70999 64.18C8.91429 64.6887 9.20905 65.1563 9.57999 65.56C10.5731 66.7614 11.6707 67.8724 12.86 68.88C15.18 70.73 17.39 70.99 20.38 70.31" stroke="#81B727" stroke-width="0.9" stroke-linecap="round" stroke-linejoin="round"/>
<path d="M20.35 78.41C17.64 72.16 22.63 71.11 23.35 70.11C24.1749 69.1828 24.9083 68.1782 25.54 67.11C25.9285 66.2448 26.1328 65.3083 26.14 64.36C26.1869 63.6458 26.0952 62.9293 25.87 62.25C25.6333 61.566 25.1574 60.9907 24.53 60.63" stroke="#81B727" stroke-width="0.9" stroke-linecap="round" stroke-linejoin="round"/>
<path d="M10.86 61C10.8895 60.5173 11.0225 60.0467 11.25 59.62C12.3197 57.717 13.9902 56.2224 16 55.37C16.2344 55.2338 16.499 55.1582 16.77 55.15C17.1673 55.2043 17.536 55.3869 17.82 55.67C18.0657 55.3955 18.3825 55.1941 18.7355 55.0883C19.0884 54.9824 19.4637 54.9761 19.82 55.07C20.5162 55.2365 21.1571 55.5811 21.68 56.07C22.696 56.9406 23.468 58.0606 23.92 59.32" stroke="#81B727" stroke-width="0.9" stroke-linecap="round" stroke-linejoin="round"/>
<path d="M10.68 59.17C9.17592 59.2002 7.7038 59.6095 6.39998 60.36C6.25075 60.4257 6.13009 60.5428 6.05998 60.69C5.97998 60.93 6.15998 61.18 6.26998 61.41C6.39884 61.879 6.42274 62.3707 6.33998 62.85C6.33518 63.3559 6.37534 63.8612 6.45998 64.36C6.51472 64.8254 6.61521 65.2843 6.75998 65.73C7.22849 67.0735 7.8563 68.3559 8.62998 69.55" stroke="#81B727" stroke-width="0.9" stroke-linecap="round" stroke-linejoin="round"/>
<path d="M18.8 76.89C18.12 76.24 15.12 76.15 14.19 76.06C13.1848 75.9606 12.1967 75.7321 11.25 75.38C10.5555 75.1697 9.93265 74.7718 9.44999 74.23C9.22685 73.9379 9.07533 73.5976 9.0076 73.2364C8.93987 72.8751 8.95781 72.503 9.05999 72.15C8.63555 72.3598 8.16846 72.469 7.69499 72.469C7.22152 72.469 6.75442 72.3598 6.32999 72.15C5.623 71.8611 4.97546 71.4441 4.41999 70.92C3.81159 70.3118 3.26862 69.6414 2.79999 68.92L1.79999 67.39C1.69531 67.2803 1.61969 67.1463 1.57999 67C1.57999 66.65 1.91999 66.42 2.23999 66.28L5.71999 64.73" stroke="#81B727" stroke-width="0.9" stroke-linecap="round" stroke-linejoin="round"/>
<path d="M25.3 76.56C24.8108 77.3919 24.1281 78.0935 23.3099 78.6054C22.4917 79.1172 21.5621 79.4241 20.6 79.5C19.0339 79.5817 17.4699 79.3022 16.029 78.6832C14.5881 78.0642 13.3088 77.1222 12.29 75.93" stroke="#81B727" stroke-width="0.9" stroke-linecap="round" stroke-linejoin="round"/>
<path d="M25.22 59.2C25.5005 59.0107 25.8233 58.8934 26.1599 58.8585C26.4966 58.8236 26.8366 58.8722 27.15 59C27.7664 59.2656 28.3502 59.6011 28.89 60C29.8463 60.7035 30.985 61.1166 32.17 61.19C32.17 61.49 31.87 61.68 31.64 61.87C31.41 62.06 31.19 62.37 31.36 62.62C31.53 62.87 31.54 62.79 31.61 62.9C31.6647 63.0416 31.6647 63.1984 31.61 63.34C31.2 65 30.61 66.94 29.28 68" stroke="#81B727" stroke-width="0.9" stroke-linecap="round" stroke-linejoin="round"/>
<path d="M15.11 78.62C14.2616 79.0593 13.4371 79.5433 12.64 80.07C12.2299 80.1877 11.7999 80.22 11.3768 80.165C10.9537 80.11 10.5464 79.9687 10.18 79.75L13.92 81C14.7598 81.364 15.6858 81.4819 16.59 81.34C17.0209 81.2842 17.4345 81.1355 17.8023 80.9041C18.1701 80.6728 18.4832 80.3643 18.72 80" stroke="#81B727" stroke-width="0.9" stroke-linecap="round" stroke-linejoin="round"/>
<path d="M21.71 79.31C22.35 81.96 22.27 80.84 22.71 83.07" stroke="#81B727" stroke-width="0.9" stroke-linecap="round" stroke-linejoin="round"/>
<path d="M28.26 113.91C31.5561 114.22 34.8739 114.22 38.17 113.91" stroke="#81B727" stroke-width="0.9" stroke-linecap="round" stroke-linejoin="round"/>
<path d="M39.54 115.39C42.15 127.99 45.08 138.58 42.59 151.22C42.32 152.58 40.74 158.12 36.5 158.12L32.08 158.19C30.35 158.08 28.14 158.12 26.08 154.39C21.27 145.65 26.08 123.68 28.17 115.82" stroke="#81B727" stroke-width="0.9" stroke-linecap="round" stroke-linejoin="round"/>
<path d="M230.84 70.33C230.397 70.416 229.978 70.6009 229.617 70.871C229.255 71.1411 228.958 71.4894 228.75 71.89C221.3 84.53 217.68 99.13 216.28 113.73" stroke="#81B727" stroke-width="0.9" stroke-linecap="round" stroke-linejoin="round"/>
<path d="M232.35 70.34C235.27 70.15 238.2 73.92 237.85 76.82C237.5 79.72 235.65 82.18 234.22 84.72C231.82 88.99 230.48 93.72 229.28 98.52C224.28 118.41 222.84 135.86 226.1 156.11" stroke="#81B727" stroke-width="0.9" stroke-linecap="round" stroke-linejoin="round"/>
<path d="M160.5 32.54C160.601 35.8628 161.306 39.1396 162.58 42.21C164.128 46.0865 166.88 49.3639 170.43 51.56C171.495 52.3535 172.607 53.0815 173.76 53.74C175.86 54.74 178.3 54.19 180.37 53.13C183.01 51.8582 185.32 49.9929 187.12 47.68C188.04 46.42 191.37 41.82 191.63 38.2C191.82 38.94 193.73 38.39 194.92 36.38C196.11 34.37 196.05 32.85 195.78 30.69C195.7 30.086 195.525 29.4986 195.26 28.95C194.69 27.7 191.74 26.31 190.33 29.66" stroke="#81B727" stroke-width="0.9" stroke-linecap="round" stroke-linejoin="round"/>
<path d="M190.33 33.42L192.42 31.34" stroke="#81B727" stroke-width="0.9" stroke-linecap="round" stroke-linejoin="round"/>
<path d="M173.49 13.27C169.39 14.75 166.08 18.46 164.55 21.07C162.28 24.94 161.55 29.25 160.32 33.58C157.73 29.27 157.91 24.19 158.69 19.26C161.2 3.38999 175.55 3.15999 176.36 4.25999" stroke="#81B727" stroke-width="0.9" stroke-linecap="round" stroke-linejoin="round"/>
<path d="M173.49 13.27C174.81 19.88 183.04 22.12 186.23 25.27C187.102 26.1414 187.784 27.1839 188.233 28.3319C188.682 29.4798 188.889 30.7083 188.84 31.94" stroke="#81B727" stroke-width="0.9" stroke-linecap="round" stroke-linejoin="round"/>
<path d="M195.88 29.94C195.88 31.94 199.18 20.87 195.88 12.84C195.14 10.91 189.56 2.94999 182.88 2.52999C180.71 2.39999 178.11 2.72999 176.39 4.21999" stroke="#81B727" stroke-width="0.9" stroke-linecap="round" stroke-linejoin="round"/>
<path d="M196.52 39C198.13 41.43 200.01 44.21 199.63 47.11C199.3 49.61 197.32 51.4 196.49 53.78" stroke="#81B727" stroke-width="0.9" stroke-linecap="round" stroke-linejoin="round"/>
<path d="M190.64 41.82C190.29 44.54 193.8 52.06 196.49 55.34" stroke="#81B727" stroke-width="0.9" stroke-linecap="round" stroke-linejoin="round"/>
<path d="M176.26 55.12V54.55C178.26 65.67 175.96 68.15 175.92 67.8" stroke="#81B727" stroke-width="0.9" stroke-linecap="round" stroke-linejoin="round"/>
<path d="M196.49 56.57C199.57 57.26 198.85 59.46 204.57 64.42C213.2 71.89 210.87 86.18 212.66 105" stroke="#81B727" stroke-width="0.9" stroke-linecap="round" stroke-linejoin="round"/>
<path d="M172.07 29.66V38.77C172.043 38.858 172.037 38.9511 172.053 39.0418C172.07 39.1324 172.107 39.2179 172.163 39.2911C172.218 39.3644 172.291 39.4234 172.374 39.4632C172.457 39.503 172.548 39.5225 172.64 39.52C173.22 39.6017 173.805 39.6385 174.39 39.63" stroke="#81B727" stroke-width="0.9" stroke-linecap="round" stroke-linejoin="round"/>
<path d="M169.61 44.3C169.43 44.38 170.26 44.64 170.44 44.71C172.021 45.2817 173.712 45.4835 175.383 45.2997C177.054 45.116 178.661 44.5516 180.08 43.65" stroke="#81B727" stroke-width="0.9" stroke-linecap="round" stroke-linejoin="round"/>
<path d="M166.15 31.81C166.12 31.7949 166.096 31.7693 166.083 31.7381C166.07 31.7069 166.069 31.672 166.08 31.64C166.08 31.57 166.25 31.59 166.31 31.64C166.329 31.6806 166.34 31.725 166.34 31.77C166.34 31.815 166.329 31.8594 166.31 31.9C166.313 31.9199 166.313 31.9401 166.31 31.96C166.286 31.9816 166.257 31.9967 166.225 32.0039C166.194 32.0111 166.161 32.0102 166.13 32.0012C166.099 31.9922 166.071 31.9754 166.048 31.9524C166.025 31.9295 166.009 31.9011 166 31.87C165.996 31.8356 165.999 31.8006 166.009 31.7674C166.019 31.7342 166.036 31.7035 166.058 31.6772C166.081 31.6508 166.109 31.6295 166.14 31.6145C166.171 31.5995 166.205 31.5911 166.24 31.59" stroke="#81B727" stroke-width="0.9" stroke-linecap="round" stroke-linejoin="round"/>
<path d="M180 31.75H179.94C179.919 31.7363 179.902 31.7177 179.891 31.6959C179.879 31.6741 179.873 31.6497 179.873 31.625C179.873 31.6002 179.879 31.5759 179.891 31.5541C179.902 31.5322 179.919 31.5137 179.94 31.5C179.964 31.4907 179.989 31.4864 180.014 31.4875C180.039 31.4886 180.064 31.495 180.087 31.5063C180.109 31.5176 180.129 31.5336 180.146 31.5532C180.162 31.5728 180.173 31.5956 180.18 31.62C180.187 31.6726 180.174 31.7258 180.145 31.7699C180.115 31.814 180.071 31.846 180.02 31.86C179.997 31.8722 179.971 31.8787 179.945 31.8787C179.919 31.8787 179.893 31.8722 179.87 31.86C179.861 31.8516 179.854 31.8415 179.849 31.8303C179.845 31.8192 179.842 31.8071 179.842 31.795C179.842 31.7828 179.845 31.7708 179.849 31.7597C179.854 31.7485 179.861 31.7384 179.87 31.73" stroke="#81B727" stroke-width="0.9" stroke-linecap="round" stroke-linejoin="round"/>
<path d="M177.89 25.44C178.819 25.2349 179.789 25.3549 180.64 25.78" stroke="#81B727" stroke-width="0.9" stroke-linecap="round" stroke-linejoin="round"/>
<path d="M165.06 26.69C165.152 26.4991 165.293 26.3367 165.47 26.22C165.777 25.9777 166.131 25.8026 166.51 25.7061C166.889 25.6096 167.285 25.5939 167.67 25.66" stroke="#81B727" stroke-width="0.9" stroke-linecap="round" stroke-linejoin="round"/>
<path d="M170.75 71.58C167.109 81.8801 165.249 92.7252 165.25 103.65C165.25 107.74 166.76 116.28 166.99 120.36C167.46 129.05 166.99 131.59 163.81 139.77" stroke="#81B727" stroke-width="0.9" stroke-linecap="round" stroke-linejoin="round"/>
<path d="M174.57 64.69C173.531 65.1112 172.623 65.8016 171.94 66.69C169.445 69.7118 167.885 73.3954 167.45 77.29C166.92 81.15 166.39 82.51 166.82 86.37" stroke="#81B727" stroke-width="0.9" stroke-linecap="round" stroke-linejoin="round"/>
<path d="M189.58 69.86C187.06 73.54 186.34 78.23 186.71 82.68C187.08 87.13 188.47 91.43 189.84 95.68C193.68 107.587 197.523 119.493 201.37 131.4" stroke="#81B727" stroke-width="0.9" stroke-linecap="round" stroke-linejoin="round"/>
<path d="M157.27 140.86C161.93 142.03 166.82 140.86 171.52 139.81C182.654 137.381 193.982 135.948 205.37 135.53" stroke="#81B727" stroke-width="0.9" stroke-linecap="round" stroke-linejoin="round"/>
<path d="M191.91 68.34C193.548 67.3893 195.429 66.942 197.32 67.054C199.21 67.1661 201.026 67.8325 202.54 68.97C205.05 70.97 206.4 73.97 207.41 76.97C210.58 86.35 211.46 96.32 213.1 106.08C215.01 117.472 217.969 128.663 221.94 139.51C222.49 140.694 222.731 141.998 222.64 143.3C222.32 145.3 220.43 146.72 218.53 147.45C214.92 148.84 210.93 148.62 207.07 148.51C191.769 148.073 176.477 149.657 161.59 153.22C160.93 153.38 159.86 153.11 160.14 152.49" stroke="#81B727" stroke-width="0.9" stroke-linecap="round" stroke-linejoin="round"/>
<path d="M157 144.48C156.43 146.37 157.64 149.7 159.28 151.17" stroke="#81B727" stroke-width="0.9" stroke-linecap="round" stroke-linejoin="round"/>
<path d="M202.33 132.69C202.705 131.319 203.451 130.079 204.487 129.107C205.523 128.134 206.808 127.467 208.2 127.18L206.2 130" stroke="#81B727" stroke-width="0.9" stroke-linecap="round" stroke-linejoin="round"/>
<path d="M205.84 132.17C207.504 132.117 209.152 132.514 210.61 133.32" stroke="#81B727" stroke-width="0.9" stroke-linecap="round" stroke-linejoin="round"/>
<path d="M166.92 122L145.51 127.61C145.16 127.71 144.74 127.86 144.67 128.22C144.652 128.482 144.739 128.741 144.91 128.94C146.304 131.169 146.877 133.814 146.53 136.42L154.14 135.55C162.37 134.61 162.14 135.11 165.74 134.42" stroke="#81B727" stroke-width="0.9" stroke-linecap="round" stroke-linejoin="round"/>
<path d="M132.12 138C130.22 138.82 128.337 139.67 126.47 140.55C126.104 140.689 125.765 140.892 125.47 141.15C125.329 141.282 125.224 141.447 125.164 141.631C125.105 141.815 125.093 142.011 125.13 142.2C125.3 142.81 126.03 143 126.63 143.08C127.198 143.175 127.776 143.195 128.35 143.14C129.042 143.016 129.715 142.801 130.35 142.5L133.77 141.06C134.87 140.59 135.97 140.13 137.02 139.56C139.85 138.02 142.37 135.69 145.53 135.13" stroke="#81B727" stroke-width="0.9" stroke-linecap="round" stroke-linejoin="round"/>
<path d="M115.11 136.82C114.894 137.167 114.657 137.501 114.4 137.82C114.188 138.124 114.029 138.463 113.93 138.82C113.873 138.952 113.856 139.098 113.88 139.24C113.94 139.52 114.27 139.64 114.55 139.64C115.274 139.567 115.964 139.301 116.55 138.87C118.295 137.839 120.219 137.143 122.22 136.82" stroke="#81B727" stroke-width="0.9" stroke-linecap="round" stroke-linejoin="round"/>
<path d="M152.43 141.18C147.43 140.8 142.38 141.73 137.43 142.66C136.367 142.83 135.32 143.088 134.3 143.43" fill="white"/>
<path d="M152.43 141.18C147.43 140.8 142.38 141.73 137.43 142.66C136.367 142.83 135.32 143.088 134.3 143.43" stroke="#81B727" stroke-width="0.9" stroke-linecap="round" stroke-linejoin="round"/>
<path d="M134.47 143.37C128.99 143.43 123.47 144.31 119.47 146.15C118.91 146.4 118.29 146.85 118.37 147.46C118.45 148.07 119.27 148.37 119.91 148.27C120.55 148.17 122.72 147.81 123.36 147.82" stroke="#81B727" stroke-width="0.9" stroke-linecap="round" stroke-linejoin="round"/>
<path d="M132.58 145.76C130.206 145.863 127.855 146.263 125.58 146.95C122.743 148.107 120.11 149.711 117.78 151.7C117.5 151.92 117.18 152.21 117.24 152.56C117.277 152.676 117.338 152.783 117.419 152.874C117.5 152.966 117.599 153.039 117.71 153.09C118.61 153.56 121.91 152.77 122.6 152.02" stroke="#81B727" stroke-width="0.9" stroke-linecap="round" stroke-linejoin="round"/>
<path d="M132.08 148C130.27 148.49 128.45 149 126.7 149.63C125.168 150.126 123.767 150.96 122.6 152.07C121.873 153.032 121.063 153.929 120.18 154.75C119.88 154.97 119.51 155.25 119.6 155.61C119.633 155.702 119.686 155.786 119.755 155.855C119.824 155.924 119.908 155.977 120 156.01C120.421 156.13 120.862 156.156 121.294 156.087C121.726 156.018 122.138 155.855 122.5 155.61C123.534 155.09 124.535 154.509 125.5 153.87" stroke="#81B727" stroke-width="0.9" stroke-linecap="round" stroke-linejoin="round"/>
<path d="M134.67 150.4C132.612 150.586 130.591 151.067 128.67 151.83C126.5 152.963 124.538 154.458 122.87 156.25C124.09 156.96 125.63 156.45 126.92 155.91C129.01 155.04 131.14 154.08 133.41 154.08C134.242 154.112 135.07 154.199 135.89 154.34C138.293 154.802 140.754 154.876 143.18 154.56C146.818 153.775 150.123 151.881 152.64 149.14" stroke="#81B727" stroke-width="0.9" stroke-linecap="round" stroke-linejoin="round"/>
<path d="M154.06 148.68C154.86 148.35 155.68 148.04 156.5 147.78" stroke="#81B727" stroke-width="0.9" stroke-linecap="round" stroke-linejoin="round"/>
<path d="M174.81 69.52C175.1 70.52 173.2 76.73 173.49 77.73C174.89 77.02 185.36 60.84 187.81 58.73C188.703 57.802 189.877 57.194 191.15 57" stroke="#81B727" stroke-width="0.9" stroke-linecap="round" stroke-linejoin="round"/>
<path d="M144.33 129.21C140.87 130.02 137.21 129.39 133.77 130.27C132.16 130.68 130.64 131.41 129.05 131.88C128.12 132.16 127.17 132.34 126.23 132.56C124.49 132.95 122.78 133.43 121.06 133.9L115.06 135.58C114.801 135.634 114.558 135.747 114.35 135.91C114.25 135.998 114.183 136.117 114.16 136.247C114.136 136.378 114.157 136.513 114.22 136.63C114.297 136.711 114.391 136.775 114.494 136.818C114.597 136.861 114.708 136.882 114.82 136.88C117.714 137.058 120.617 136.991 123.5 136.68C126.394 136.37 129.32 136.733 132.05 137.74C132.25 137.82 132.45 137.92 132.65 138.01" stroke="#81B727" stroke-width="0.9" stroke-linecap="round" stroke-linejoin="round"/>
<path d="M173.17 48C173.418 48.1951 173.716 48.3164 174.03 48.35C174.917 48.502 175.829 48.3872 176.65 48.02" stroke="#81B727" stroke-width="0.9" stroke-linecap="round" stroke-linejoin="round"/>
</svg>
