<?xml version="1.0" encoding="utf-8"?>
<!-- Generator: Adobe Illustrator 23.0.2, SVG Export Plug-In . SVG Version: 6.00 Build 0)  -->
<svg version="1.1" id="レイヤー_1" xmlns="http://www.w3.org/2000/svg" xmlns:xlink="http://www.w3.org/1999/xlink" x="0px"
	 y="0px" viewBox="0 0 120 90" style="enable-background:new 0 0 120 90;" xml:space="preserve">
<style type="text/css">
	.st0{fill-rule:evenodd;clip-rule:evenodd;fill:#80B627;}
	.st1{fill-rule:evenodd;clip-rule:evenodd;fill:#999999;}
</style>
<g>
	<path class="st0" d="M68.94,50.34c8.63,1.9,14.61,6.54,24.53,4.5c8.86-1.82,14.87-7.74,25.02-8.97
		c-10.91,1.91-13.6-6.58-22.06-9.65c-9.97-3.6-19.09,2.33-25.87,8.45c8.26-5.29,20.2-4.17,28.72,0.31
		c-11.7-2.55-24.19-0.43-32.95,5.65L68.94,50.34L68.94,50.34z M61.86,53.61l-1.29-1.85c10.26,4.31,17.29,12.86,18.57,22.49
		c2.12-7.97-0.93-17.27-10.09-21.5c9.59,2.84,19.82,7.48,19.24,16.21c-0.49,7.43-9.41,12.5-3.22,19.94
		c-5.1-7.11-14.21-9.45-19.53-15.38C59.55,66.86,62.78,60.71,61.86,53.61L61.86,53.61z M67.13,42.12l-1.41,1.79
		c-0.19-9.26,5.86-18.28,15.83-23.79c-9.77,2.32-18.53,8.9-18.8,17.36c-1.48-8.1-1.28-17.5,8.59-21.26
		c8.4-3.21,18.24,0.65,23.44-7.26c-5.38,6.99-3.58,14.5-7.55,21.07C82.79,37.41,74.5,38.08,67.13,42.12z"/>
	<path class="st1" d="M57.5,52.86c-1.33,7.06,1.52,13.32-4.85,19.75c-5.68,5.71-14.91,7.7-20.43,14.6
		c6.63-7.18-1.98-12.6-2.04-20.03c-0.06-8.76,10.44-13,20.18-15.45c-9.4,3.87-12.98,13.04-11.35,21.1
		c1.85-9.57,9.37-17.85,19.88-21.75L57.5,52.86L57.5,52.86z M50.69,47.62l2.63,0.22c-9.01-5.83-21.62-7.6-33.18-4.72
		c8.32-4.72,20.19-6.17,28.69-1.12c-7.05-5.92-16.44-11.59-26.25-7.71c-8.32,3.31-10.6,11.87-21.59,10.26
		c10.18,0.94,16.48,6.69,25.39,8.26C36.4,54.55,42.18,49.76,50.69,47.62L50.69,47.62z M50.31,40.68c-5.68-5.51-13.41-8-15.15-16.08
		c-1.53-7.19,2.78-14.02,0.04-21.91c2.26,8.75,13.05,7.23,20,12.17c8.19,5.82,5.14,14.9,0.92,22.34
		c2.67-8.19-3.48-16.45-12.07-20.85c7.68,7.5,10.37,17.51,6.99,26.37L50.31,40.68z"/>
</g>
</svg>
