<svg height="24" width="24" id="icon" xmlns="http://www.w3.org/2000/svg" viewBox="0 0 24 24" fill="rgba(0, 0, 0, 0.64)"><title>grower-image</title><path d="M17.77,6.86c0-.45,0-1.11-3-1.44a5,5,0,0,0-9.73,0c-2.94.34-2.95,1-2.95,1.43s0,1.1,3,1.44v.86a4.8,4.8,0,0,0,9.6,0V8.3C17.75,8,17.77,7.31,17.77,6.86Zm-4.62,2.3a3.2,3.2,0,0,1-6.4,0V8.43c.89.05,1.93.08,3.2.08s2.31,0,3.2-.08Z"/><path d="M18.75,10.38a1.36,1.36,0,1,1-1.36,1.35,1.35,1.35,0,0,1,1.36-1.35M15.28,13a1.36,1.36,0,0,0,1.36,1.36h0a1.34,1.34,0,0,0,.75-.24v.1a1.36,1.36,0,1,0,2.71,0v-.1A1.35,1.35,0,0,0,22.22,13a1.35,1.35,0,0,0-.78-1.22,1.34,1.34,0,0,0,.78-1.22,1.36,1.36,0,0,0-1.36-1.35,1.3,1.3,0,0,0-.76.24V9.3a1.36,1.36,0,1,0-2.71,0v.1a1.27,1.27,0,0,0-.75-.24,1.36,1.36,0,0,0-1.36,1.35h0a1.34,1.34,0,0,0,.78,1.22A1.35,1.35,0,0,0,15.28,13"/><path d="M16.56,15.13a12.39,12.39,0,0,0-4-1.62l-.35,1.56a9.57,9.57,0,0,1,1.15.32v.74H6.48v-.7c.54-.18,1-.31,1.15-.35L7.2,13.53A15.75,15.75,0,0,0,3.39,15.1a2.24,2.24,0,0,0-1.29,2v4.77H17.8V17.11A2.33,2.33,0,0,0,16.56,15.13ZM4.88,20.28H3.7V17s0-.27.53-.58l.65-.36Zm11.32,0H15V16.05a5.08,5.08,0,0,1,.65.39c.45.31.54.54.56.6Z"/></svg>