<?xml version="1.0" encoding="UTF-8"?>
<svg width="752pt" height="752pt" version="1.1" viewBox="0 0 752 752" xmlns="http://www.w3.org/2000/svg">
 <defs>
  <clipPath id="c">
   <path d="m220 139.21h181v113.79h-181z"/>
  </clipPath>
  <clipPath id="b">
   <path d="m274 508h48v104.79h-48z"/>
  </clipPath>
  <clipPath id="a">
   <path d="m330 473h48v139.79h-48z"/>
  </clipPath>
 </defs>
 <g clip-path="url(#c)">
  <path d="m286.32 245.29c-2.4141-4.0508-4.2695-8.5117-5.3906-13.324-5.8008-24.91 9.7422-49.891 34.652-55.688 3.4688-0.80859 7.0195-1.2188 10.555-1.2188 18.305 0 34.371 10.566 41.883 26.59 24.508-19.867 37.508-40.23 31.105-52.398-7.707-14.648-41.125-12.836-79.965 2.6484-4.9141-6.6133-18.016-6.7734-30.254-0.089844-11.691 6.3828-18.543 16.789-16.609 24.43-36.156 23.594-57.641 50.957-49.762 65.926 6.6133 12.566 32.145 13.02 63.785 3.125z" fill="#007335"/>
 </g>
 <g clip-path="url(#b)">
  <path d="m312 532.75 0.003906 0.12891v0.125c-0.078125 5.7852-4.8516 10.488-10.633 10.488h-0.14844l-26.324-0.37109v46.254c0 12.93 10.484 23.41 23.414 23.41 12.926 0 23.41-10.48 23.41-23.41v-80.449l-10.633 6.75z" fill="#007335"/>
 </g>
 <g clip-path="url(#a)">
  <path d="m330.75 589.38c0 12.93 10.484 23.41 23.414 23.41 12.926 0 23.41-10.48 23.41-23.41l-0.003907-115.9-46.824 29.719z" fill="#007335"/>
 </g>
 <path d="m316.44 179.96c-22.906 5.332-37.156 28.23-31.824 51.141 1.1016 4.7305 2.9648 9.0859 5.4062 12.984 9.3945 14.969 27.555 23.07 45.73 18.84 22.914-5.332 37.16-28.234 31.828-51.145-0.62891-2.707-1.5117-5.2852-2.6016-7.7305-8.1445-18.262-28.332-28.793-48.539-24.09z" fill="#007335"/>
 <path d="m205.71 525.48-0.49219 6.0273c-0.058594 3.7852 2.9688 6.8906 6.75 6.9453l89.309 1.2578c3.7812 0.050781 6.8867-2.9727 6.9414-6.7539l-1.0312-19.289 70.391-44.676 8.4102-5.3359c1.4844 2.2266 7.0039 2.2266 12.809-0.10547l16.844-2.8477 0.14453 0.35547c1.2305 3.0742 4.7148 4.5664 7.7891 3.332l2.7812-1.1172c3.0703-1.2344 4.5625-4.7188 3.332-7.7891l-12.543-31.289c-1.2305-3.0703-4.7188-4.5664-7.793-3.332l-2.7812 1.1133c-3.0703 1.2344-4.5625 4.7227-3.3359 7.7969l0.14062 0.35547-14.141 9.5781c-5.8086 2.3281-9.8086 6.1484-9.3359 8.7852l-2.3281 0.66797-46.824 13.406-9.0352 2.5859-16.863 4.8281-1.1523-21.562c0.089844-6.3047-2.4961-11.453-5.7734-11.496l-10.688-0.15234c-0.19141-0.53516-0.42969-1.0508-0.64453-1.5742-1.4492-3.5117-3.3633-6.7461-5.7422-9.543-1.4375-1.7031-3.0508-3.2461-4.7969-4.6094-0.21484 0.92188-0.51562 1.8281-0.86719 2.7188-0.097657 0.24219-0.18359 0.48828-0.28906 0.72656-0.027344 0.058594-0.042969 0.12109-0.070313 0.17578-0.95703 2.1016-2.2734 3.957-3.8594 5.543 0.71094 0.65234 1.4062 1.3398 2.0547 2.0977 0.67969 0.79688 1.293 1.6758 1.8711 2.5859 0.35938 0.55859 0.71484 1.125 1.0391 1.7227l-1.0391-0.015625-34.695-0.48828c0.89062-1.5391 1.8945-2.9688 3.0312-4.2266 0.42969-0.47656 0.87891-0.91797 1.3359-1.3516-2.0469-1.9375-3.6797-4.3398-4.7031-7.0781-0.23438-0.62109-0.44141-1.2266-0.66797-1.8477-1.2773 1.0508-2.5 2.1719-3.6055 3.4102-2.8164 3.1367-5.0898 6.8438-6.6953 10.934l-10.688-0.14844c-2.1523-0.027344-4.0586 2.1484-5.1445 5.4219-2.0312-0.24219-4.3086-0.42188-6.7617-0.46094-7.3633-0.074218-16.469 1.0156-24.418 6.6055-8.0234 5.5703-13.574 15.902-13.652 30.246-0.11328 8.3086 2.9961 15.723 7.2266 21.906 8.7969 12.664 22.438 21.539 30.258 25.961zm-15.891-66.949c4.2422-3.0742 10.508-4.1758 16.285-4.0664 1.9219 0.027343 3.7383 0.17969 5.3789 0.375l-4.5234 55.367c-3.043-1.9805-6.4141-4.3828-9.6602-7.125-4.2852-3.6055-8.3125-7.793-11.105-12.145-2.8008-4.3672-4.3281-8.7383-4.2656-13.129 0.28906-11.375 3.7305-16.184 7.8906-19.277z" fill="#007335"/>
 <path d="m242.38 419.29c0.34375 0.94531 0.67578 1.8789 1.0352 2.8359 0.90234 2.4102 2.3672 4.4375 4.1719 6.0312 1.0547 0.92969 2.2148 1.7188 3.4688 2.3203 2.0234 0.96875 4.2617 1.4961 6.5469 1.4961 1.7617 0 3.5547-0.30859 5.3047-0.96484 0.55859-0.21094 1.0977-0.45703 1.6133-0.72266 1.2695-0.65234 2.418-1.4609 3.4258-2.4023 2.5781-2.4141 4.2266-5.6641 4.6719-9.1445 0.18359-1.4258 0.16797-2.8945-0.074219-4.3555-0.15625-0.96094-0.40625-1.9219-0.75781-2.8633-5.5234-14.75-8.9805-27.426-10.93-38.242-1.4492-8.043-2.0664-15.059-2.0625-21.117 0.015626-11.828 2.2539-20.012 5.1406-25.934 3.0898-6.2617 7.0312-10.285 10.965-13.078v95.848c0.14844 0.39844 0.28516 0.79297 0.43359 1.1953 0.80078 2.1328 1.1797 4.3477 1.1914 6.5625 2.6367 1.7969 5.0859 3.9375 7.2227 6.4648 2.4727 2.9141 4.5117 6.2031 6.0742 9.8125l8.1602 0.11719c1.9336 0.027343 3.7422 0.86328 5.2539 2.3594 0.85156 0.84375 1.6094 1.8906 2.2305 3.1328 1.3438 2.668 2.0547 6.1133 2.0234 9.7109l0.89453 16.695 13.34-3.8203v-25.719h9.0352v23.133l45.816-13.117c0.24609-0.62891 0.60156-1.2422 1.0039-1.8477v-58.66c0-1.1211-0.10547-2.2188-0.25781-3.2969v-48.195c17.91 15.449 46.242 30.73 86.094 32.172 0.19531 0.003907 0.39062 0.007813 0.58203 0.007813 4.7227 0 8.9648-2.1875 11.754-5.6211-7.4922-8.1367-12.32-18.25-8.9219-24.391-0.73828-0.14062-1.4883-0.24609-2.2617-0.27344-33.711-1.3555-55.055-13.887-68.781-25.977-6.8164-6.0547-11.602-12.035-14.602-16.379-1.5-2.168-2.5547-3.9219-3.1992-5.0586-0.32422-0.56641-0.53906-0.98438-0.66016-1.2148-0.027343-0.050781-0.046874-0.089843-0.0625-0.125-0.78125-1.6641-1.8398-3.1016-3.0742-4.3242-2.6797-3.4062-6.8281-5.6055-11.5-5.6055l-73.156-0.003906c-1.2188 0-2.3984 0.16406-3.5312 0.44531-0.42969 0.011719-0.85547 0.03125-1.2852 0.078125l-0.003907-0.003906c-1.5391 0.23047-14.73 1.7031-28.82 12.238-6.9922 5.2617-14.062 12.949-19.164 23.414-5.1328 10.465-8.2383 23.531-8.2227 39.246 0 6.5508 0.54297 13.578 1.6602 21.117 1.8633 12.57 5.3867 26.598 10.91 42.363 0.41797 1.2109 0.85938 2.4336 1.3047 3.6602z" fill="#007335"/>
 <path d="m531.8 383.31c0 7.8281-6.3477 14.176-14.18 14.176-7.8281 0-14.176-6.3477-14.176-14.176s6.3477-14.176 14.176-14.176c7.832 0 14.18 6.3477 14.18 14.176" fill="#007335"/>
 <path d="m527.07 339.59c0 12.398-4.2305 22.449-9.4531 22.449-5.2188 0-9.4492-10.051-9.4492-22.449s4.2305-22.445 9.4492-22.445c5.2227 0 9.4531 10.047 9.4531 22.445" fill="#007335"/>
 <path d="m527.07 427.02c0 12.398-4.2305 22.449-9.4531 22.449-5.2188 0-9.4492-10.051-9.4492-22.449 0-12.398 4.2305-22.449 9.4492-22.449 5.2227 0 9.4531 10.051 9.4531 22.449" fill="#007335"/>
 <path d="m477.82 356.71c0.70312 0.79688 1.4297 1.5859 2.2109 2.3633 8.7695 8.7656 18.867 12.883 22.555 9.1914 3.6875-3.6875-0.42578-13.789-9.1914-22.555-8.7656-8.7695-18.867-12.883-22.551-9.1914-0.11328 0.11328-0.19531 0.25-0.29297 0.375-2.8359 3.5898 0.30078 11.945 7.2695 19.816z" fill="#007335"/>
 <path d="m555.21 407.56c8.7656 8.7695 12.879 18.867 9.1914 22.559-3.6914 3.6914-13.793-0.42188-22.559-9.1914-8.7656-8.7656-12.883-18.863-9.1914-22.555s13.793 0.42188 22.559 9.1875" fill="#007335"/>
 <path d="m496.35 383.31c0 5.2227-10.047 9.4531-22.445 9.4531-12.395 0-22.445-4.2305-22.445-9.4531 0-5.2188 10.051-9.4492 22.445-9.4492 12.398 0 22.445 4.2305 22.445 9.4492" fill="#007335"/>
 <path d="m583.78 383.31c0 5.2227-10.051 9.4531-22.445 9.4531-12.398 0-22.449-4.2305-22.449-9.4531 0-5.2188 10.051-9.4492 22.449-9.4492 12.395 0 22.445 4.2305 22.445 9.4492" fill="#007335"/>
 <path d="m502.58 398.36c3.6914 3.6914-0.42188 13.789-9.1875 22.555s-18.867 12.879-22.559 9.1875c-3.6914-3.6914 0.42578-13.789 9.1914-22.555 8.7656-8.7656 18.863-12.879 22.555-9.1875" fill="#007335"/>
 <path d="m564.39 336.53c3.6914 3.6875-0.42188 13.789-9.1875 22.555-8.7656 8.7695-18.863 12.883-22.555 9.1914-3.6914-3.6914 0.42188-13.789 9.1875-22.555 8.7617-8.7695 18.863-12.883 22.555-9.1914" fill="#007335"/>
 <path d="m550.6 475.51c-1.7773-5.1914-26.301-1.4961-43.18 4.2812-16.871 5.7734-19.711 11.449-17.934 16.641 1.7773 5.1875 7.5 7.9336 24.371 2.1602 16.879-5.7773 38.52-17.891 36.742-23.082z" fill="#007335"/>
 <path d="m440.9 434.06c-4.9844 1.9062-0.55078 25.609 5.6523 41.812 6.1992 16.199 11.816 18.758 16.793 16.852 4.9883-1.9102 7.457-7.5586 1.2539-23.762-6.1914-16.199-18.715-36.812-23.699-34.902z" fill="#007335"/>
 <path d="m435.11 530.9c0 4.207 3.2344 7.6172 7.3516 7.9766l13.477 68.234h49.23l13.477-68.234c4.1133-0.35938 7.3516-3.7695 7.3516-7.9766 0-4.4453-3.6016-8.0469-8.0469-8.0469h-35.602c-0.003906-0.6875-0.03125-1.3867-0.03125-2.0664-0.003906-23.664 4.3125-44.164 8.6172-58.699 2.1602-7.2656 4.3047-13.047 5.9062-16.98 0.80469-1.9688 1.4648-3.4766 1.9219-4.4805 0.45703-1 0.67969-1.4531 0.67969-1.4531 1.1719-2.3359 0.22266-5.1836-2.1133-6.3477-2.3359-1.1719-5.1836-0.22656-6.3477 2.1133v-0.003906c-0.17969 0.39453-18.109 36.223-18.133 85.852 0 0.67969 0.023438 1.3828 0.03125 2.0664h-29.723c-4.4453 0-8.0469 3.6016-8.0469 8.0469z" fill="#007335"/>
</svg>
