<svg width="64pt" height="64pt" style="isolation:isolate" version="1.1" viewBox="0 0 64 64" xmlns="http://www.w3.org/2000/svg">
 <defs>
  <clipPath id="a">
   <rect width="64" height="64"/>
  </clipPath>
 </defs>
 <g clip-path="url(#a)">
  <clipPath id="b">
   <rect width="64" height="64" fill="#fff"/>
  </clipPath>
  <g clip-path="url(#b)">
   <rect width="64" height="64" fill="#ddd"/>
   <path d="m32.975 22.015c4.73 0.47 8.5 4.22 8.95 8.97 0.55 5.5-3.45 10.38-8.95 10.93v-2c3.64-0.43 6.5-3.32 6.96-6.96 0.54-4.39-2.57-8.38-6.96-8.92v-2-0.02zm-2 0.03v2c-1.43 0.2-2.78 0.78-3.9 1.68l-1.43-1.48c1.52-1.26 3.38-2.01 5.33-2.2zm-6.74 3.61 1.43 1.43c-0.89 1.13-1.45 2.48-1.64 3.9h-2c0.2-1.96 0.95-3.81 2.21-5.33zm-2.2 7.33h2c0.18 1.42 0.75 2.77 1.63 3.9l-1.42 1.43c-1.24-1.52-2.01-3.37-2.21-5.33zm5.04 5.37c1.13 0.88 2.48 1.45 3.9 1.63v2c-1.96-0.21-3.82-1-5.33-2.26l1.43-1.37zm4.9-1.87-4.5-4.5h3.5v-4h2v4h3.5l-4.5 4.5z" fill="#bcbcbc"/>
  </g>
 </g>
</svg>
