<?xml version="1.0" encoding="UTF-8"?>
<svg width="64" height="64" style="isolation:isolate" version="1.1" viewBox="0 0 64 64" xmlns="http://www.w3.org/2000/svg" xmlns:cc="http://creativecommons.org/ns#" xmlns:dc="http://purl.org/dc/elements/1.1/" xmlns:rdf="http://www.w3.org/1999/02/22-rdf-syntax-ns#">
 <metadata>
  <rdf:RDF>
   <cc:Work rdf:about="">
    <dc:format>image/svg+xml</dc:format>
    <dc:type rdf:resource="http://purl.org/dc/dcmitype/StillImage"/>
    <dc:title/>
   </cc:Work>
  </rdf:RDF>
 </metadata>
 <defs>
  <clipPath id="_clipPath_t7lNAbW4x1lmEgNP9MkeTdArXnx7VrDo">
   <rect width="64" height="64"/>
  </clipPath>
  <clipPath id="_clipPath_t7lNAbW4x1lmEgNP9MkeTdArXnx7VrDo-3">
   <rect width="64" height="64"/>
  </clipPath>
 </defs>
 <g clip-path="url(#_clipPath_t7lNAbW4x1lmEgNP9MkeTdArXnx7VrDo)">
  <rect width="64" height="64" fill="#ddd"/>
  <g opacity=".2">
   <path d="m25.054 38.328v-11.34h2.506v11.34h-2.506zm4.074 0v-8.092h2.24v0.644q0.812-0.798 1.918-0.798 0.49 0 0.847 0.245t0.539 0.721q0.854-0.966 2.058-0.966 0.714 0 1.141 0.525t0.427 1.435v6.286h-2.24v-6.048q0-0.336-0.119-0.483t-0.357-0.147q-0.154 0-0.364 0.077t-0.392 0.217v0.098 6.286h-2.212v-6.048q0-0.63-0.49-0.63-0.322 0-0.756 0.294v6.384h-2.24zm12.208 0.14q-0.588 0-1.015-0.287t-0.644-0.742-0.217-0.945q0-0.938 0.476-1.54t1.141-0.938 1.715-0.7v-0.812q0-0.35-0.105-0.532t-0.371-0.182-0.378 0.168-0.126 0.476l-0.056 0.588-2.128-0.084q0.056-1.456 0.77-2.149t2.128-0.693q1.19 0 1.82 0.665t0.63 1.771v3.78q0 1.232 0.14 2.016h-2.044q-0.126-0.938-0.182-1.148-0.168 0.56-0.56 0.924t-0.994 0.364zm0.812-1.54q0.35 0 0.644-0.406v-2.212q-0.63 0.364-0.952 0.763t-0.322 0.973q0 0.406 0.168 0.644t0.462 0.238zm6.818 4.2q-1.4 0-2.198-0.413t-0.798-1.239q0-1.036 1.26-1.61-1.12-0.308-1.12-1.288 0-0.462 0.217-0.812t0.679-0.756q-0.798-0.714-0.798-2.1 0-1.358 0.749-2.086t2.149-0.728q1.246 0 1.918 0.63 0.322-0.518 0.98-0.84l0.294-0.14 0.532 1.092q-0.196 0.07-0.595 0.245t-0.665 0.329q0.322 0.672 0.322 1.512 0 1.33-0.707 2.058t-2.079 0.728q-0.756 0-1.386-0.224-0.21 0.294-0.21 0.49 0 0.168 0.175 0.266t0.595 0.154l2.128 0.238q1.022 0.112 1.519 0.658t0.497 1.456q0 1.19-0.819 1.785t-2.639 0.595zm0.14-6.776q0.378 0 0.504-0.308t0.126-1.134-0.126-1.141-0.504-0.315-0.504 0.308-0.126 1.148q0 0.812 0.126 1.127t0.504 0.315zm0.154 5.124q0.826 0 1.211-0.14t0.385-0.504q0-0.294-0.259-0.427t-0.959-0.203l-1.498-0.154q-0.476 0.364-0.476 0.756 0 0.35 0.371 0.511t1.225 0.161zm6.72-1.008q-1.33 0-2.072-0.707t-0.742-1.995v-2.968q0-1.288 0.742-1.995t2.072-0.707q1.344 0 2.016 0.686t0.672 2.016v1.624h-3.248v1.554q0 0.868 0.56 0.868 0.588 0 0.588-0.784v-0.854h2.1v0.784q0 1.218-0.707 1.848t-1.981 0.63zm-0.56-5.11h1.148v-0.812q0-0.448-0.161-0.637t-0.441-0.189q-0.266 0-0.406 0.21t-0.14 0.742v0.686zm-48.58 4.97v-11.34h1.764l2.324 5.46v-5.46h2.072v11.34h-1.694l-2.324-5.88v5.88h-2.142zm10.388 0.14q-1.33 0-2.079-0.672t-0.749-1.974v-3.08q0-1.302 0.749-1.974t2.079-0.672 2.086 0.679 0.756 1.967v3.08q0 1.288-0.756 1.967t-2.086 0.679zm0.014-1.512q0.322 0 0.448-0.245t0.126-0.735v-3.388q0-0.49-0.126-0.735t-0.448-0.245-0.455 0.252-0.133 0.728v3.388q0 0.49 0.133 0.735t0.455 0.245z"/>
  </g>
 </g>
 <g clip-path="url(#_clipPath_t7lNAbW4x1lmEgNP9MkeTdArXnx7VrDo-3)" style="isolation:isolate">
  <rect width="64" height="64" fill="#ddd"/>
  <g transform="matrix(.36848 0 0 .36848 -70.135 3.8526)" opacity=".15" stroke-width="1.0016">
   <g stroke-width="1.0016">
    <g transform="translate(2.4379 3.5927)">
     <path class="st2" d="m283.94 77.34c8.63 1.9 14.61 6.54 24.53 4.5 8.86-1.82 14.87-7.74 25.02-8.97-10.91 1.91-13.6-6.58-22.06-9.65-9.97-3.6-19.09 2.33-25.87 8.45 8.26-5.29 20.2-4.17 28.72 0.31-11.7-2.55-24.19-0.43-32.95 5.65zm-7.08 3.27-1.29-1.85c10.26 4.31 17.29 12.86 18.57 22.49 2.12-7.97-0.93-17.27-10.09-21.5 9.59 2.84 19.82 7.48 19.24 16.21-0.49 7.43-9.41 12.5-3.22 19.94-5.1-7.11-14.21-9.45-19.53-15.38-5.99-6.66-2.76-12.81-3.68-19.91zm5.27-11.49-1.41 1.79c-0.19-9.26 5.86-18.28 15.83-23.79-9.77 2.32-18.53 8.9-18.8 17.36-1.48-8.1-1.28-17.5 8.59-21.26 8.4-3.21 18.24 0.65 23.44-7.26-5.38 6.99-3.58 14.5-7.55 21.07-4.44 7.38-12.73 8.05-20.1 12.09z" stroke-width="1.0016"/>
     <path class="st1" d="m272.5 79.86c-1.33 7.06 1.52 13.32-4.85 19.75-5.68 5.71-14.91 7.7-20.43 14.6 6.63-7.18-1.98-12.6-2.04-20.03-0.06-8.76 10.44-13 20.18-15.45-9.4 3.87-12.98 13.04-11.35 21.1 1.85-9.57 9.37-17.85 19.88-21.75zm-6.81-5.24 2.63 0.22c-9.01-5.83-21.62-7.6-33.18-4.72 8.32-4.72 20.19-6.17 28.69-1.12-7.05-5.92-16.44-11.59-26.25-7.71-8.32 3.31-10.6 11.87-21.59 10.26 10.18 0.94 16.48 6.69 25.39 8.26 10.02 1.74 15.8-3.05 24.31-5.19zm-0.38-6.94c-5.68-5.51-13.41-8-15.15-16.08-1.53-7.19 2.78-14.02 0.04-21.91 2.26 8.75 13.05 7.23 20 12.17 8.19 5.82 5.14 14.9 0.92 22.34 2.67-8.19-3.48-16.45-12.07-20.85 7.68 7.5 10.37 17.51 6.99 26.37z" opacity=".998" stroke-width="1.0014"/>
    </g>
   </g>
  </g>
 </g>
</svg>
